<svg width="474" height="125" viewBox="0 0 474 125" fill="none" xmlns="http://www.w3.org/2000/svg">
  <style>
    :root {
      color-scheme: dark light;
      color: #3c3c43;
    }
    @media (prefers-color-scheme: dark) {
      :root {
        color: #dfdfd6;
      }
    }
  </style>
<path fill-rule="evenodd" clip-rule="evenodd" d="M415.334 36.834H452.667C455.307 36.834 456.774 36.834 458.161 36.274C459.947 35.5007 461.334 34.114 462.107 32.3007C462.667 30.9673 462.667 29.474 462.667 26.834C462.667 24.194 462.667 22.7273 462.107 21.3407C461.334 19.554 459.947 18.1673 458.134 17.394C456.801 16.834 455.334 16.834 452.667 16.834H415.334C412.694 16.834 411.227 16.834 409.841 17.394C408.054 18.1673 406.667 19.554 405.894 21.3673C405.334 22.7007 405.334 24.194 405.334 26.834C405.334 29.474 405.334 30.9407 405.894 32.3273C406.667 34.114 408.054 35.5007 409.867 36.274C411.201 36.834 412.667 36.834 415.334 36.834ZM415.334 20.834H452.667C454.747 20.834 456.001 20.834 456.587 21.074C457.414 21.4207 458.054 22.0607 458.401 22.8607C458.641 23.5007 458.641 24.754 458.641 26.8313V26.834C458.641 28.914 458.641 30.1673 458.401 30.754C458.054 31.5807 457.414 32.2207 456.614 32.5673C455.974 32.8073 454.721 32.8073 452.641 32.8073H415.307C413.227 32.8073 411.974 32.8073 411.387 32.5673C410.561 32.2207 409.921 31.5807 409.574 30.7807C409.334 30.1407 409.334 28.8873 409.334 26.8073C409.334 24.7273 409.334 23.474 409.574 22.8873C409.921 22.0607 410.561 21.4207 411.361 21.074C412.001 20.834 413.254 20.834 415.334 20.834ZM415.334 63.5007H452.667C455.307 63.5007 456.774 63.5007 458.161 62.9407C459.947 62.1673 461.334 60.7807 462.107 58.9673C462.667 57.634 462.667 56.1407 462.667 53.5007C462.667 50.8607 462.667 49.394 462.107 48.0073C461.334 46.2207 459.947 44.834 458.134 44.0607C456.801 43.5007 455.334 43.5007 452.667 43.5007H415.334C412.694 43.5007 411.227 43.5007 409.841 44.0607C408.054 44.834 406.667 46.2207 405.894 48.034C405.334 49.3673 405.334 50.8607 405.334 53.5007C405.334 56.1407 405.334 57.6073 405.894 58.994C406.667 60.7807 408.054 62.1673 409.867 62.9407C411.201 63.5007 412.667 63.5007 415.334 63.5007ZM415.334 47.5007H452.667C454.747 47.5007 456.001 47.5007 456.587 47.7407C457.414 48.0873 458.054 48.7273 458.401 49.5273C458.641 50.1673 458.641 51.4207 458.641 53.498C458.641 55.578 458.641 56.834 458.401 57.4207C458.054 58.2473 457.414 58.8873 456.614 59.234C455.974 59.474 454.721 59.474 452.641 59.474H415.307C413.227 59.474 411.974 59.474 411.387 59.234C410.561 58.8873 409.921 58.2473 409.574 57.4473C409.334 56.8073 409.334 55.554 409.334 53.474C409.334 51.394 409.334 50.1407 409.574 49.554C409.921 48.7273 410.561 48.0873 411.361 47.7407C412.001 47.5007 413.254 47.5007 415.334 47.5007ZM418.027 56.1673C416.561 56.1673 415.361 54.9673 415.361 53.5007C415.361 52.034 416.534 50.834 418.027 50.834C419.494 50.834 420.694 52.034 420.694 53.5007C420.694 54.9673 419.494 56.1673 418.027 56.1673ZM426.027 53.5007C426.027 54.9673 427.227 56.1673 428.694 56.1673C430.161 56.1673 431.361 54.9673 431.361 53.5007C431.361 52.034 430.161 50.834 428.694 50.834C427.201 50.834 426.027 52.034 426.027 53.5007ZM418.027 29.5007C416.561 29.5007 415.361 28.3007 415.361 26.834C415.361 25.3673 416.534 24.1673 418.027 24.1673C419.494 24.1673 420.694 25.3673 420.694 26.834C420.694 28.3007 419.494 29.5007 418.027 29.5007ZM426.027 26.834C426.027 28.3007 427.227 29.5007 428.694 29.5007C430.161 29.5007 431.361 28.3007 431.361 26.834C431.361 25.3673 430.161 24.1673 428.694 24.1673C427.201 24.1673 426.027 25.3673 426.027 26.834Z" fill="currentColor"/>
<path fill-rule="evenodd" clip-rule="evenodd" d="M24.334 36.834H61.6673C64.3073 36.834 65.774 36.834 67.1607 36.274C68.9473 35.5007 70.334 34.114 71.1073 32.3007C71.6673 30.9673 71.6673 29.474 71.6673 26.834C71.6673 24.194 71.6673 22.7273 71.1073 21.3407C70.334 19.554 68.9473 18.1673 67.134 17.394C65.8007 16.834 64.334 16.834 61.6673 16.834H24.334C21.694 16.834 20.2273 16.834 18.8407 17.394C17.054 18.1673 15.6673 19.554 14.894 21.3673C14.334 22.7007 14.334 24.194 14.334 26.834C14.334 29.474 14.334 30.9407 14.894 32.3273C15.6673 34.114 17.054 35.5007 18.8673 36.274C20.2007 36.834 21.6673 36.834 24.334 36.834ZM24.334 20.834H61.6673C63.7473 20.834 65.0007 20.834 65.5873 21.074C66.414 21.4207 67.054 22.0607 67.4007 22.8607C67.6407 23.5007 67.6407 24.754 67.6407 26.8313V26.834C67.6407 28.914 67.6407 30.1673 67.4007 30.754C67.054 31.5807 66.414 32.2207 65.614 32.5673C64.974 32.8073 63.7207 32.8073 61.6407 32.8073H24.3073C22.2273 32.8073 20.974 32.8073 20.3873 32.5673C19.5607 32.2207 18.9207 31.5807 18.574 30.7807C18.334 30.1407 18.334 28.8873 18.334 26.8073C18.334 24.7273 18.334 23.474 18.574 22.8873C18.9207 22.0607 19.5607 21.4207 20.3607 21.074C21.0007 20.834 22.254 20.834 24.334 20.834ZM24.334 63.5007H61.6673C64.3073 63.5007 65.774 63.5007 67.1607 62.9407C68.9473 62.1673 70.334 60.7807 71.1073 58.9673C71.6673 57.634 71.6673 56.1407 71.6673 53.5007C71.6673 50.8607 71.6673 49.394 71.1073 48.0073C70.334 46.2207 68.9473 44.834 67.134 44.0607C65.8007 43.5007 64.334 43.5007 61.6673 43.5007H24.334C21.694 43.5007 20.2273 43.5007 18.8407 44.0607C17.054 44.834 15.6673 46.2207 14.894 48.034C14.334 49.3673 14.334 50.8607 14.334 53.5007C14.334 56.1407 14.334 57.6073 14.894 58.994C15.6673 60.7807 17.054 62.1673 18.8673 62.9407C20.2007 63.5007 21.6673 63.5007 24.334 63.5007ZM24.334 47.5007H61.6673C63.7473 47.5007 65.0007 47.5007 65.5873 47.7407C66.414 48.0873 67.054 48.7273 67.4007 49.5273C67.6407 50.1673 67.6407 51.4207 67.6407 53.498C67.6407 55.578 67.6407 56.834 67.4007 57.4207C67.054 58.2473 66.414 58.8873 65.614 59.234C64.974 59.474 63.7207 59.474 61.6407 59.474H24.3073C22.2273 59.474 20.974 59.474 20.3873 59.234C19.5607 58.8873 18.9207 58.2473 18.574 57.4473C18.334 56.8073 18.334 55.554 18.334 53.474C18.334 51.394 18.334 50.1407 18.574 49.554C18.9207 48.7273 19.5607 48.0873 20.3607 47.7407C21.0007 47.5007 22.254 47.5007 24.334 47.5007ZM27.0273 56.1673C25.5607 56.1673 24.3607 54.9673 24.3607 53.5007C24.3607 52.034 25.534 50.834 27.0273 50.834C28.494 50.834 29.694 52.034 29.694 53.5007C29.694 54.9673 28.494 56.1673 27.0273 56.1673ZM35.0273 53.5007C35.0273 54.9673 36.2273 56.1673 37.694 56.1673C39.1607 56.1673 40.3607 54.9673 40.3607 53.5007C40.3607 52.034 39.1607 50.834 37.694 50.834C36.2007 50.834 35.0273 52.034 35.0273 53.5007ZM27.0273 29.5007C25.5607 29.5007 24.3607 28.3007 24.3607 26.834C24.3607 25.3673 25.534 24.1673 27.0273 24.1673C28.494 24.1673 29.694 25.3673 29.694 26.834C29.694 28.3007 28.494 29.5007 27.0273 29.5007ZM35.0273 26.834C35.0273 28.3007 36.2273 29.5007 37.694 29.5007C39.1607 29.5007 40.3607 28.3007 40.3607 26.834C40.3607 25.3673 39.1607 24.1673 37.694 24.1673C36.2007 24.1673 35.0273 25.3673 35.0273 26.834Z" fill="currentColor"/>
<path d="M193.666 31.9993H244.333M205.666 23.9993H205.69M216.333 23.9993H216.357M193.666 39.9993C193.666 28.058 193.666 22.0847 197.375 18.3753C201.085 14.666 207.055 14.666 218.999 14.666C230.941 14.666 236.914 14.666 240.623 18.3753C244.333 22.0847 244.333 28.0553 244.333 39.9993C244.333 51.9407 244.333 57.914 240.623 61.6233C236.914 65.3327 230.943 65.3327 218.999 65.3327C207.058 65.3327 201.085 65.3327 197.375 61.6233C193.666 57.914 193.666 51.9434 193.666 39.9993Z" stroke="currentColor" stroke-width="4" stroke-linecap="round" stroke-linejoin="round"/>
<path d="M201.055 78.6172V89.2891H206.875V91.0312H198.875V78.6172H201.055ZM212.125 82.0547C213.406 82.0547 214.409 82.5156 215.133 83.4375C215.773 84.2552 216.094 85.3203 216.094 86.6328C216.094 88.1484 215.682 89.3281 214.859 90.1719C214.151 90.8958 213.234 91.2578 212.109 91.2578C210.818 91.2578 209.812 90.7969 209.094 89.875C208.458 89.0625 208.141 87.9974 208.141 86.6797C208.141 85.1693 208.555 83.9896 209.383 83.1406C210.096 82.4167 211.01 82.0547 212.125 82.0547ZM212.125 83.5078C210.844 83.5078 210.203 84.5547 210.203 86.6484C210.203 88.7526 210.839 89.8047 212.109 89.8047C213.391 89.8047 214.031 88.7526 214.031 86.6484C214.031 84.5547 213.396 83.5078 212.125 83.5078ZM225.164 84.8594L223.211 85.3047C223.023 84.1172 222.505 83.5234 221.656 83.5234C220.344 83.5234 219.688 84.5651 219.688 86.6484C219.688 88.7422 220.344 89.7891 221.656 89.7891C222.583 89.7891 223.143 89.1745 223.336 87.9453L225.211 88.4609C224.982 89.4297 224.521 90.1536 223.828 90.6328C223.229 91.0495 222.49 91.2578 221.609 91.2578C220.276 91.2578 219.255 90.7995 218.547 89.8828C217.932 89.0807 217.625 88.013 217.625 86.6797C217.625 85.1536 218.031 83.974 218.844 83.1406C219.547 82.4167 220.469 82.0547 221.609 82.0547C222.62 82.0547 223.44 82.3307 224.07 82.8828C224.617 83.362 224.982 84.0208 225.164 84.8594ZM226.727 84.4609C227.18 82.8464 228.391 82.0391 230.359 82.0391C232.63 82.0391 233.766 83.0104 233.766 84.9531V88.4375C233.766 89.2865 233.812 90.151 233.906 91.0312H232.055C231.997 90.7031 231.948 90.3203 231.906 89.8828C231.276 90.7891 230.354 91.2422 229.141 91.2422C228.271 91.2422 227.589 90.9766 227.094 90.4453C226.656 89.9766 226.438 89.3724 226.438 88.6328C226.438 87.0703 227.393 86.1042 229.305 85.7344C230.013 85.599 230.849 85.5156 231.812 85.4844V84.9844C231.812 84.401 231.674 83.987 231.398 83.7422C231.159 83.5339 230.789 83.4297 230.289 83.4297C229.831 83.4297 229.451 83.5781 229.148 83.875C228.872 84.1458 228.693 84.5104 228.609 84.9688L226.727 84.4609ZM231.812 86.7266C231.141 86.7422 230.469 86.8281 229.797 86.9844C228.839 87.2135 228.359 87.7109 228.359 88.4766C228.359 89.362 228.828 89.8047 229.766 89.8047C230.62 89.8047 231.302 89.3229 231.812 88.3594V86.7266ZM238.312 78.3906V91.0312H236.297V78.3906H238.312ZM187.633 98.6172H192.062C193.656 98.6172 194.794 98.9245 195.477 99.5391C196.029 100.034 196.305 100.755 196.305 101.703C196.305 102.464 196.052 103.091 195.547 103.586C195.115 104.013 194.544 104.286 193.836 104.406V104.516C194.815 104.677 195.552 105.049 196.047 105.633C196.474 106.138 196.688 106.763 196.688 107.508C196.688 108.69 196.258 109.591 195.398 110.211C194.633 110.758 193.596 111.031 192.289 111.031H187.633V98.6172ZM189.742 100.234V103.719H191.633C192.518 103.719 193.18 103.534 193.617 103.164C193.982 102.857 194.164 102.44 194.164 101.914C194.164 101.305 193.964 100.867 193.562 100.602C193.193 100.357 192.612 100.234 191.82 100.234H189.742ZM189.742 105.336V109.414H192.047C192.911 109.414 193.555 109.208 193.977 108.797C194.331 108.448 194.508 107.966 194.508 107.352C194.508 106.674 194.237 106.159 193.695 105.805C193.216 105.492 192.576 105.336 191.773 105.336H189.742ZM203.398 102.055L203.266 103.945C202.146 103.945 201.315 104.688 200.773 106.172V111.031H198.789V102.25H200.68V104.406C201.247 102.839 202.154 102.055 203.398 102.055ZM208.523 102.055C209.805 102.055 210.807 102.516 211.531 103.438C212.172 104.255 212.492 105.32 212.492 106.633C212.492 108.148 212.081 109.328 211.258 110.172C210.549 110.896 209.633 111.258 208.508 111.258C207.216 111.258 206.211 110.797 205.492 109.875C204.857 109.062 204.539 107.997 204.539 106.68C204.539 105.169 204.953 103.99 205.781 103.141C206.495 102.417 207.409 102.055 208.523 102.055ZM208.523 103.508C207.242 103.508 206.602 104.555 206.602 106.648C206.602 108.753 207.237 109.805 208.508 109.805C209.789 109.805 210.43 108.753 210.43 106.648C210.43 104.555 209.794 103.508 208.523 103.508ZM226.297 102.25L223.883 111.031H221.547L220.664 107.094C220.622 106.896 220.414 105.836 220.039 103.914H219.852C219.612 105.206 219.398 106.271 219.211 107.109L218.281 111.031H215.945L213.594 102.25H215.656L216.492 106.102C216.576 106.503 216.695 107.094 216.852 107.875C216.987 108.552 217.086 109.039 217.148 109.336H217.32C217.388 109.049 217.505 108.484 217.672 107.641C217.802 106.995 217.909 106.495 217.992 106.141L218.859 102.25H221.227L222.055 106.141C222.331 107.391 222.539 108.456 222.68 109.336H222.875C222.922 109.117 223.034 108.555 223.211 107.648C223.331 107.039 223.438 106.529 223.531 106.117L224.375 102.25H226.297ZM234.266 104.297L232.359 104.844C232.141 103.901 231.62 103.43 230.797 103.43C230.349 103.43 229.997 103.534 229.742 103.742C229.529 103.909 229.422 104.12 229.422 104.375C229.422 104.745 229.539 105.021 229.773 105.203C229.992 105.37 230.396 105.531 230.984 105.688L231.719 105.883C232.781 106.164 233.513 106.526 233.914 106.969C234.268 107.359 234.445 107.888 234.445 108.555C234.445 109.43 234.109 110.107 233.438 110.586C232.818 111.034 231.969 111.258 230.891 111.258C228.979 111.258 227.758 110.526 227.227 109.062L229.102 108.406C229.383 109.391 229.995 109.883 230.938 109.883C232.005 109.883 232.539 109.505 232.539 108.75C232.539 108.375 232.414 108.102 232.164 107.93C231.951 107.789 231.51 107.622 230.844 107.43L230.109 107.227C229.094 106.956 228.398 106.602 228.023 106.164C227.695 105.779 227.531 105.242 227.531 104.555C227.531 103.768 227.852 103.146 228.492 102.688C229.081 102.266 229.859 102.055 230.828 102.055C232.615 102.055 233.76 102.802 234.266 104.297ZM243.836 107.078H237.898C237.909 107.995 238.122 108.698 238.539 109.188C238.919 109.63 239.443 109.852 240.109 109.852C241.052 109.852 241.669 109.294 241.961 108.18L243.789 108.711C243.237 110.409 242.003 111.258 240.086 111.258C238.685 111.258 237.62 110.805 236.891 109.898C236.25 109.107 235.93 108.039 235.93 106.695C235.93 105.174 236.346 103.992 237.18 103.148C237.893 102.419 238.805 102.055 239.914 102.055C241.154 102.055 242.133 102.505 242.852 103.406C243.508 104.224 243.836 105.31 243.836 106.664V107.078ZM241.867 105.75C241.768 104.214 241.128 103.445 239.945 103.445C239.305 103.445 238.807 103.68 238.453 104.148C238.151 104.549 237.977 105.083 237.93 105.75H241.867ZM250.477 102.055L250.344 103.945C249.224 103.945 248.393 104.688 247.852 106.172V111.031H245.867V102.25H247.758V104.406C248.326 102.839 249.232 102.055 250.477 102.055Z" fill="currentColor"/>
<path d="M400.898 78.6172L404.727 91.0312H402.469L401.414 87.3828H397.602L396.531 91.0312H394.484L398.289 78.6172H400.898ZM401.031 85.7812L400.305 83.2656C400.211 82.9115 399.966 81.8932 399.57 80.2109H399.43C399.164 81.3724 398.909 82.3854 398.664 83.25L397.992 85.7812H401.031ZM408.469 79.3828V82.25H410.438V83.7188H408.469V88.5391C408.469 89.3828 408.831 89.8047 409.555 89.8047C409.945 89.8047 410.286 89.7708 410.578 89.7031L410.5 91.1406C410.057 91.2083 409.534 91.2422 408.93 91.2422C408.039 91.2422 407.398 91.0286 407.008 90.6016C406.659 90.2214 406.484 89.6562 406.484 88.9062V83.7188H405.172V82.25H406.484V79.8359L408.469 79.3828ZM414.547 79.3828V82.25H416.516V83.7188H414.547V88.5391C414.547 89.3828 414.909 89.8047 415.633 89.8047C416.023 89.8047 416.365 89.7708 416.656 89.7031L416.578 91.1406C416.135 91.2083 415.612 91.2422 415.008 91.2422C414.117 91.2422 413.477 91.0286 413.086 90.6016C412.737 90.2214 412.562 89.6562 412.562 88.9062V83.7188H411.25V82.25H412.562V79.8359L414.547 79.3828ZM417.969 84.4609C418.422 82.8464 419.633 82.0391 421.602 82.0391C423.872 82.0391 425.008 83.0104 425.008 84.9531V88.4375C425.008 89.2865 425.055 90.151 425.148 91.0312H423.297C423.24 90.7031 423.19 90.3203 423.148 89.8828C422.518 90.7891 421.596 91.2422 420.383 91.2422C419.513 91.2422 418.831 90.9766 418.336 90.4453C417.898 89.9766 417.68 89.3724 417.68 88.6328C417.68 87.0703 418.635 86.1042 420.547 85.7344C421.255 85.599 422.091 85.5156 423.055 85.4844V84.9844C423.055 84.401 422.917 83.987 422.641 83.7422C422.401 83.5339 422.031 83.4297 421.531 83.4297C421.073 83.4297 420.693 83.5781 420.391 83.875C420.115 84.1458 419.935 84.5104 419.852 84.9688L417.969 84.4609ZM423.055 86.7266C422.383 86.7422 421.711 86.8281 421.039 86.9844C420.081 87.2135 419.602 87.7109 419.602 88.4766C419.602 89.362 420.07 89.8047 421.008 89.8047C421.862 89.8047 422.544 89.3229 423.055 88.3594V86.7266ZM434.547 84.8594L432.594 85.3047C432.406 84.1172 431.888 83.5234 431.039 83.5234C429.727 83.5234 429.07 84.5651 429.07 86.6484C429.07 88.7422 429.727 89.7891 431.039 89.7891C431.966 89.7891 432.526 89.1745 432.719 87.9453L434.594 88.4609C434.365 89.4297 433.904 90.1536 433.211 90.6328C432.612 91.0495 431.872 91.2578 430.992 91.2578C429.659 91.2578 428.638 90.7995 427.93 89.8828C427.315 89.0807 427.008 88.013 427.008 86.6797C427.008 85.1536 427.414 83.974 428.227 83.1406C428.93 82.4167 429.852 82.0547 430.992 82.0547C432.003 82.0547 432.823 82.3307 433.453 82.8828C434 83.362 434.365 84.0208 434.547 84.8594ZM443.773 82.25L440.844 85.5312L443.938 91.0312H441.727L439.555 86.8906L438.352 88.2188V91.0312H436.367V78.3906H438.352V86.0859L441.516 82.25H443.773ZM452.867 87.0781H446.93C446.94 87.9948 447.154 88.6979 447.57 89.1875C447.951 89.6302 448.474 89.8516 449.141 89.8516C450.083 89.8516 450.701 89.2943 450.992 88.1797L452.82 88.7109C452.268 90.4089 451.034 91.2578 449.117 91.2578C447.716 91.2578 446.651 90.8047 445.922 89.8984C445.281 89.1068 444.961 88.0391 444.961 86.6953C444.961 85.1745 445.378 83.9922 446.211 83.1484C446.924 82.4193 447.836 82.0547 448.945 82.0547C450.185 82.0547 451.164 82.5052 451.883 83.4062C452.539 84.224 452.867 85.3099 452.867 86.6641V87.0781ZM450.898 85.75C450.799 84.2135 450.159 83.4453 448.977 83.4453C448.336 83.4453 447.839 83.6797 447.484 84.1484C447.182 84.5495 447.008 85.0833 446.961 85.75H450.898ZM459.508 82.0547L459.375 83.9453C458.255 83.9453 457.424 84.6875 456.883 86.1719V91.0312H454.898V82.25H456.789V84.4062C457.357 82.8385 458.263 82.0547 459.508 82.0547ZM463.258 78.6172V80.7734L462.102 83.2656H461.078L462.102 80.7734H460.969V78.6172H463.258ZM471.984 84.2969L470.078 84.8438C469.859 83.901 469.339 83.4297 468.516 83.4297C468.068 83.4297 467.716 83.5339 467.461 83.7422C467.247 83.9089 467.141 84.1198 467.141 84.375C467.141 84.7448 467.258 85.0208 467.492 85.2031C467.711 85.3698 468.115 85.5312 468.703 85.6875L469.438 85.8828C470.5 86.1641 471.232 86.526 471.633 86.9688C471.987 87.3594 472.164 87.888 472.164 88.5547C472.164 89.4297 471.828 90.1068 471.156 90.5859C470.536 91.0339 469.688 91.2578 468.609 91.2578C466.698 91.2578 465.477 90.526 464.945 89.0625L466.82 88.4062C467.102 89.3906 467.714 89.8828 468.656 89.8828C469.724 89.8828 470.258 89.5052 470.258 88.75C470.258 88.375 470.133 88.1016 469.883 87.9297C469.669 87.7891 469.229 87.6224 468.562 87.4297L467.828 87.2266C466.812 86.9557 466.117 86.6016 465.742 86.1641C465.414 85.7786 465.25 85.2422 465.25 84.5547C465.25 83.7682 465.57 83.1458 466.211 82.6875C466.799 82.2656 467.578 82.0547 468.547 82.0547C470.333 82.0547 471.479 82.8021 471.984 84.2969ZM416.781 98.6172L414.297 111.031H411.641L410.57 105.25C410.451 104.604 410.221 103.052 409.883 100.594H409.656C409.354 102.792 409.125 104.323 408.969 105.188L407.961 111.031H405.305L402.891 98.6172H405.086L405.977 104.281C406.227 105.953 406.435 107.49 406.602 108.891H406.828C406.88 108.536 406.951 108.021 407.039 107.344C407.216 105.984 407.365 104.979 407.484 104.328L408.492 98.6172H411.258L412.297 104.516C412.552 106 412.755 107.458 412.906 108.891H413.133C413.185 108.531 413.294 107.721 413.461 106.461C413.57 105.659 413.669 104.979 413.758 104.422L414.711 98.6172H416.781ZM425.336 107.078H419.398C419.409 107.995 419.622 108.698 420.039 109.188C420.419 109.63 420.943 109.852 421.609 109.852C422.552 109.852 423.169 109.294 423.461 108.18L425.289 108.711C424.737 110.409 423.503 111.258 421.586 111.258C420.185 111.258 419.12 110.805 418.391 109.898C417.75 109.107 417.43 108.039 417.43 106.695C417.43 105.174 417.846 103.992 418.68 103.148C419.393 102.419 420.305 102.055 421.414 102.055C422.654 102.055 423.633 102.505 424.352 103.406C425.008 104.224 425.336 105.31 425.336 106.664V107.078ZM423.367 105.75C423.268 104.214 422.628 103.445 421.445 103.445C420.805 103.445 420.307 103.68 419.953 104.148C419.651 104.549 419.477 105.083 419.43 105.75H423.367ZM429.367 98.3906V103.516C429.664 103.031 430.047 102.659 430.516 102.398C430.917 102.18 431.339 102.07 431.781 102.07C432.844 102.07 433.674 102.5 434.273 103.359C434.831 104.161 435.109 105.242 435.109 106.602C435.109 108.143 434.724 109.346 433.953 110.211C433.333 110.909 432.573 111.258 431.672 111.258C430.547 111.258 429.727 110.729 429.211 109.672L428.805 111.031H427.367V98.3906H429.367ZM429.367 105.148V108.234C429.789 109.214 430.38 109.703 431.141 109.703C431.745 109.703 432.216 109.422 432.555 108.859C432.883 108.323 433.047 107.581 433.047 106.633C433.047 105.576 432.852 104.786 432.461 104.266C432.154 103.849 431.753 103.641 431.258 103.641C430.445 103.641 429.815 104.143 429.367 105.148ZM443.516 104.297L441.609 104.844C441.391 103.901 440.87 103.43 440.047 103.43C439.599 103.43 439.247 103.534 438.992 103.742C438.779 103.909 438.672 104.12 438.672 104.375C438.672 104.745 438.789 105.021 439.023 105.203C439.242 105.37 439.646 105.531 440.234 105.688L440.969 105.883C442.031 106.164 442.763 106.526 443.164 106.969C443.518 107.359 443.695 107.888 443.695 108.555C443.695 109.43 443.359 110.107 442.688 110.586C442.068 111.034 441.219 111.258 440.141 111.258C438.229 111.258 437.008 110.526 436.477 109.062L438.352 108.406C438.633 109.391 439.245 109.883 440.188 109.883C441.255 109.883 441.789 109.505 441.789 108.75C441.789 108.375 441.664 108.102 441.414 107.93C441.201 107.789 440.76 107.622 440.094 107.43L439.359 107.227C438.344 106.956 437.648 106.602 437.273 106.164C436.945 105.779 436.781 105.242 436.781 104.555C436.781 103.768 437.102 103.146 437.742 102.688C438.331 102.266 439.109 102.055 440.078 102.055C441.865 102.055 443.01 102.802 443.516 104.297ZM447.711 102.25V111.031H445.695V102.25H447.711ZM447.797 98.6172V100.68H445.617V98.6172H447.797ZM452.688 99.3828V102.25H454.656V103.719H452.688V108.539C452.688 109.383 453.049 109.805 453.773 109.805C454.164 109.805 454.505 109.771 454.797 109.703L454.719 111.141C454.276 111.208 453.753 111.242 453.148 111.242C452.258 111.242 451.617 111.029 451.227 110.602C450.878 110.221 450.703 109.656 450.703 108.906V103.719H449.391V102.25H450.703V99.8359L452.688 99.3828ZM463.742 107.078H457.805C457.815 107.995 458.029 108.698 458.445 109.188C458.826 109.63 459.349 109.852 460.016 109.852C460.958 109.852 461.576 109.294 461.867 108.18L463.695 108.711C463.143 110.409 461.909 111.258 459.992 111.258C458.591 111.258 457.526 110.805 456.797 109.898C456.156 109.107 455.836 108.039 455.836 106.695C455.836 105.174 456.253 103.992 457.086 103.148C457.799 102.419 458.711 102.055 459.82 102.055C461.06 102.055 462.039 102.505 462.758 103.406C463.414 104.224 463.742 105.31 463.742 106.664V107.078ZM461.773 105.75C461.674 104.214 461.034 103.445 459.852 103.445C459.211 103.445 458.714 103.68 458.359 104.148C458.057 104.549 457.883 105.083 457.836 105.75H461.773Z" fill="currentColor"/>
<path d="M25.0547 78.6172V89.2891H30.875V91.0312H22.875V78.6172H25.0547ZM36.125 82.0547C37.4062 82.0547 38.4089 82.5156 39.1328 83.4375C39.7734 84.2552 40.0938 85.3203 40.0938 86.6328C40.0938 88.1484 39.6823 89.3281 38.8594 90.1719C38.151 90.8958 37.2344 91.2578 36.1094 91.2578C34.8177 91.2578 33.8125 90.7969 33.0938 89.875C32.4583 89.0625 32.1406 87.9974 32.1406 86.6797C32.1406 85.1693 32.5547 83.9896 33.3828 83.1406C34.0964 82.4167 35.0104 82.0547 36.125 82.0547ZM36.125 83.5078C34.8438 83.5078 34.2031 84.5547 34.2031 86.6484C34.2031 88.7526 34.8385 89.8047 36.1094 89.8047C37.3906 89.8047 38.0312 88.7526 38.0312 86.6484C38.0312 84.5547 37.3958 83.5078 36.125 83.5078ZM49.1641 84.8594L47.2109 85.3047C47.0234 84.1172 46.5052 83.5234 45.6562 83.5234C44.3438 83.5234 43.6875 84.5651 43.6875 86.6484C43.6875 88.7422 44.3438 89.7891 45.6562 89.7891C46.5833 89.7891 47.1432 89.1745 47.3359 87.9453L49.2109 88.4609C48.9818 89.4297 48.5208 90.1536 47.8281 90.6328C47.2292 91.0495 46.4896 91.2578 45.6094 91.2578C44.276 91.2578 43.2552 90.7995 42.5469 89.8828C41.9323 89.0807 41.625 88.013 41.625 86.6797C41.625 85.1536 42.0312 83.974 42.8438 83.1406C43.5469 82.4167 44.4688 82.0547 45.6094 82.0547C46.6198 82.0547 47.4401 82.3307 48.0703 82.8828C48.6172 83.362 48.9818 84.0208 49.1641 84.8594ZM50.7266 84.4609C51.1797 82.8464 52.3906 82.0391 54.3594 82.0391C56.6302 82.0391 57.7656 83.0104 57.7656 84.9531V88.4375C57.7656 89.2865 57.8125 90.151 57.9062 91.0312H56.0547C55.9974 90.7031 55.9479 90.3203 55.9062 89.8828C55.276 90.7891 54.3542 91.2422 53.1406 91.2422C52.2708 91.2422 51.5885 90.9766 51.0938 90.4453C50.6562 89.9766 50.4375 89.3724 50.4375 88.6328C50.4375 87.0703 51.3932 86.1042 53.3047 85.7344C54.013 85.599 54.849 85.5156 55.8125 85.4844V84.9844C55.8125 84.401 55.6745 83.987 55.3984 83.7422C55.1589 83.5339 54.7891 83.4297 54.2891 83.4297C53.8307 83.4297 53.4505 83.5781 53.1484 83.875C52.8724 84.1458 52.6927 84.5104 52.6094 84.9688L50.7266 84.4609ZM55.8125 86.7266C55.1406 86.7422 54.4688 86.8281 53.7969 86.9844C52.8385 87.2135 52.3594 87.7109 52.3594 88.4766C52.3594 89.362 52.8281 89.8047 53.7656 89.8047C54.6198 89.8047 55.3021 89.3229 55.8125 88.3594V86.7266ZM62.3125 78.3906V91.0312H60.2969V78.3906H62.3125ZM26.8438 101.5L24.75 102.07C24.4271 100.716 23.6901 100.039 22.5391 100.039C21.8411 100.039 21.3073 100.203 20.9375 100.531C20.625 100.812 20.4688 101.188 20.4688 101.656C20.4688 102.24 20.6484 102.682 21.0078 102.984C21.3359 103.255 21.9167 103.505 22.75 103.734L23.4062 103.93C24.8594 104.326 25.8542 104.844 26.3906 105.484C26.8229 106.005 27.0391 106.708 27.0391 107.594C27.0391 108.797 26.612 109.724 25.7578 110.375C24.9766 110.974 23.9089 111.273 22.5547 111.273C21.2474 111.273 20.1875 110.971 19.375 110.367C18.6406 109.82 18.138 109.049 17.8672 108.055L19.9297 107.398C20.1016 108.164 20.4375 108.742 20.9375 109.133C21.3698 109.471 21.8932 109.641 22.5078 109.641C24.0911 109.641 24.8828 109.049 24.8828 107.867C24.8828 107.273 24.7083 106.831 24.3594 106.539C24.0208 106.253 23.388 105.979 22.4609 105.719L21.8203 105.531C20.4401 105.12 19.4922 104.596 18.9766 103.961C18.5443 103.43 18.3281 102.708 18.3281 101.797C18.3281 100.75 18.7344 99.9115 19.5469 99.2812C20.2917 98.6979 21.2682 98.4062 22.4766 98.4062C24.7318 98.4062 26.1875 99.4375 26.8438 101.5ZM36.4922 107.078H30.5547C30.5651 107.995 30.7786 108.698 31.1953 109.188C31.5755 109.63 32.099 109.852 32.7656 109.852C33.7083 109.852 34.3255 109.294 34.6172 108.18L36.4453 108.711C35.8932 110.409 34.6589 111.258 32.7422 111.258C31.3411 111.258 30.276 110.805 29.5469 109.898C28.9062 109.107 28.5859 108.039 28.5859 106.695C28.5859 105.174 29.0026 103.992 29.8359 103.148C30.5495 102.419 31.4609 102.055 32.5703 102.055C33.8099 102.055 34.7891 102.505 35.5078 103.406C36.1641 104.224 36.4922 105.31 36.4922 106.664V107.078ZM34.5234 105.75C34.4245 104.214 33.7839 103.445 32.6016 103.445C31.9609 103.445 31.4635 103.68 31.1094 104.148C30.8073 104.549 30.6328 105.083 30.5859 105.75H34.5234ZM43.1328 102.055L43 103.945C41.8802 103.945 41.0495 104.688 40.5078 106.172V111.031H38.5234V102.25H40.4141V104.406C40.9818 102.839 41.888 102.055 43.1328 102.055ZM51.7031 102.25L48.9453 111.031H46.5625L43.8438 102.25H46L46.9141 105.914C47.0339 106.388 47.1771 106.992 47.3438 107.727C47.526 108.518 47.651 109.055 47.7188 109.336H47.9062C48 108.982 48.1536 108.37 48.3672 107.5C48.5339 106.833 48.6745 106.289 48.7891 105.867L49.7344 102.25H51.7031ZM60.7109 107.078H54.7734C54.7839 107.995 54.9974 108.698 55.4141 109.188C55.7943 109.63 56.3177 109.852 56.9844 109.852C57.9271 109.852 58.5443 109.294 58.8359 108.18L60.6641 108.711C60.112 110.409 58.8776 111.258 56.9609 111.258C55.5599 111.258 54.4948 110.805 53.7656 109.898C53.125 109.107 52.8047 108.039 52.8047 106.695C52.8047 105.174 53.2214 103.992 54.0547 103.148C54.7682 102.419 55.6797 102.055 56.7891 102.055C58.0286 102.055 59.0078 102.505 59.7266 103.406C60.3828 104.224 60.7109 105.31 60.7109 106.664V107.078ZM58.7422 105.75C58.6432 104.214 58.0026 103.445 56.8203 103.445C56.1797 103.445 55.6823 103.68 55.3281 104.148C55.026 104.549 54.8516 105.083 54.8047 105.75H58.7422ZM67.3516 102.055L67.2188 103.945C66.099 103.945 65.2682 104.688 64.7266 106.172V111.031H62.7422V102.25H64.6328V104.406C65.2005 102.839 66.1068 102.055 67.3516 102.055Z" fill="currentColor"/>
<path d="M187 33L80 33" stroke="currentColor" stroke-width="2"/>
<path d="M187.707 47.7071C188.098 47.3166 188.098 46.6834 187.707 46.2929L181.343 39.9289C180.953 39.5384 180.319 39.5384 179.929 39.9289C179.538 40.3195 179.538 40.9526 179.929 41.3431L185.586 47L179.929 52.6569C179.538 53.0474 179.538 53.6805 179.929 54.0711C180.319 54.4616 180.953 54.4616 181.343 54.0711L187.707 47.7071ZM80 47V48H187V47V46H80V47Z" fill="currentColor"/>
<path d="M250.293 32.2929C249.902 32.6834 249.902 33.3166 250.293 33.7071L256.657 40.0711C257.047 40.4616 257.681 40.4616 258.071 40.0711C258.462 39.6805 258.462 39.0474 258.071 38.6569L252.414 33L258.071 27.3431C258.462 26.9526 258.462 26.3195 258.071 25.9289C257.681 25.5384 257.047 25.5384 256.657 25.9289L250.293 32.2929ZM400 33V32L251 32V33V34L400 34V33Z" fill="currentColor"/>
<path d="M400.707 47.7071C401.098 47.3166 401.098 46.6834 400.707 46.2929L394.343 39.9289C393.953 39.5384 393.319 39.5384 392.929 39.9289C392.538 40.3195 392.538 40.9526 392.929 41.3431L398.586 47L392.929 52.6569C392.538 53.0474 392.538 53.6805 392.929 54.0711C393.319 54.4616 393.953 54.4616 394.343 54.0711L400.707 47.7071ZM251 47V48H400V47V46H251V47Z" fill="currentColor"/>
<path d="M257.391 7V17.6406H259.562V18.7109H253.789V17.6406H256.109V8.39062C255.484 8.81771 254.716 9.20312 253.805 9.54688L253.578 8.375C254.49 8.07812 255.396 7.61979 256.297 7H257.391ZM263.922 16.9688V18.7109H262.18V16.9688H263.922ZM273.992 9.51562L272.602 9.92969C272.201 8.53906 271.367 7.84375 270.102 7.84375C269.32 7.84375 268.716 8.03906 268.289 8.42969C267.919 8.76823 267.734 9.20833 267.734 9.75C267.734 10.4062 267.938 10.901 268.344 11.2344C268.703 11.5312 269.318 11.7891 270.188 12.0078L270.695 12.1562C272.133 12.5208 273.107 13.0052 273.617 13.6094C274.018 14.0885 274.219 14.7448 274.219 15.5781C274.219 16.6719 273.823 17.5208 273.031 18.125C272.312 18.6667 271.354 18.9375 270.156 18.9375C268.984 18.9375 268.026 18.6536 267.281 18.0859C266.625 17.5859 266.164 16.8828 265.898 15.9766L267.273 15.4922C267.471 16.2943 267.857 16.8984 268.43 17.3047C268.909 17.638 269.474 17.8047 270.125 17.8047C271.068 17.8047 271.771 17.5859 272.234 17.1484C272.609 16.7943 272.797 16.3229 272.797 15.7344C272.797 15.0625 272.602 14.5625 272.211 14.2344C271.831 13.9062 271.146 13.612 270.156 13.3516L269.688 13.2109C268.359 12.8516 267.448 12.3802 266.953 11.7969C266.547 11.3125 266.344 10.651 266.344 9.8125C266.344 8.88021 266.703 8.1224 267.422 7.53906C268.099 6.98698 268.982 6.71094 270.07 6.71094C272.081 6.71094 273.388 7.64583 273.992 9.51562ZM283.117 14.8125H277.391C277.391 15.8646 277.638 16.6693 278.133 17.2266C278.549 17.6953 279.102 17.9297 279.789 17.9297C280.867 17.9297 281.56 17.375 281.867 16.2656L283.07 16.6641C282.534 18.1589 281.435 18.9062 279.773 18.9062C278.581 18.9062 277.656 18.4792 277 17.625C276.417 16.8698 276.125 15.8776 276.125 14.6484C276.125 13.2734 276.503 12.1823 277.258 11.375C277.904 10.6875 278.706 10.3438 279.664 10.3438C280.758 10.3438 281.622 10.7604 282.258 11.5938C282.831 12.3438 283.117 13.3203 283.117 14.5234V14.8125ZM281.852 13.8828C281.784 13.0078 281.536 12.349 281.109 11.9062C280.74 11.526 280.263 11.3359 279.68 11.3359C279.003 11.3359 278.456 11.5964 278.039 12.1172C277.68 12.5703 277.474 13.1589 277.422 13.8828H281.852ZM289.43 10.3594L289.336 11.625C288.773 11.625 288.263 11.8542 287.805 12.3125C287.378 12.7292 287.049 13.2995 286.82 14.0234V18.7109H285.523V10.5391H286.773V12.6172C287.357 11.112 288.242 10.3594 289.43 10.3594ZM297.258 10.5391L294.633 18.7109H293.016L290.391 10.5391H291.797L293.047 15.0156C293.104 15.224 293.333 16.1042 293.734 17.6562H293.977C294.07 17.3385 294.198 16.8646 294.359 16.2344C294.495 15.6927 294.607 15.2708 294.695 14.9688L295.945 10.5391H297.258ZM305.695 14.8125H299.969C299.969 15.8646 300.216 16.6693 300.711 17.2266C301.128 17.6953 301.68 17.9297 302.367 17.9297C303.445 17.9297 304.138 17.375 304.445 16.2656L305.648 16.6641C305.112 18.1589 304.013 18.9062 302.352 18.9062C301.159 18.9062 300.234 18.4792 299.578 17.625C298.995 16.8698 298.703 15.8776 298.703 14.6484C298.703 13.2734 299.081 12.1823 299.836 11.375C300.482 10.6875 301.284 10.3438 302.242 10.3438C303.336 10.3438 304.201 10.7604 304.836 11.5938C305.409 12.3438 305.695 13.3203 305.695 14.5234V14.8125ZM304.43 13.8828C304.362 13.0078 304.115 12.349 303.688 11.9062C303.318 11.526 302.841 11.3359 302.258 11.3359C301.581 11.3359 301.034 11.5964 300.617 12.1172C300.258 12.5703 300.052 13.1589 300 13.8828H304.43ZM314.336 7.71094V10.5391H316.289V11.5469H314.336V16.5859C314.336 17.4714 314.714 17.9141 315.469 17.9141C315.859 17.9141 316.201 17.8802 316.492 17.8125L316.43 18.8203C316.06 18.8776 315.638 18.9062 315.164 18.9062C313.758 18.9062 313.055 18.2109 313.055 16.8203V11.5469H311.727V10.5391H313.055V7.99219L314.336 7.71094ZM319.586 6.71094V11.9922C320.44 10.8932 321.378 10.3438 322.398 10.3438C323.128 10.3438 323.701 10.5807 324.117 11.0547C324.487 11.4714 324.672 12.0182 324.672 12.6953V18.7109H323.344V13.1641C323.344 12.0495 322.885 11.4922 321.969 11.4922C321.151 11.4922 320.357 12.0339 319.586 13.1172V18.7109H318.289V6.71094H319.586ZM334.055 14.8125H328.328C328.328 15.8646 328.576 16.6693 329.07 17.2266C329.487 17.6953 330.039 17.9297 330.727 17.9297C331.805 17.9297 332.497 17.375 332.805 16.2656L334.008 16.6641C333.471 18.1589 332.372 18.9062 330.711 18.9062C329.518 18.9062 328.594 18.4792 327.938 17.625C327.354 16.8698 327.062 15.8776 327.062 14.6484C327.062 13.2734 327.44 12.1823 328.195 11.375C328.841 10.6875 329.643 10.3438 330.602 10.3438C331.695 10.3438 332.56 10.7604 333.195 11.5938C333.768 12.3438 334.055 13.3203 334.055 14.5234V14.8125ZM332.789 13.8828C332.721 13.0078 332.474 12.349 332.047 11.9062C331.677 11.526 331.201 11.3359 330.617 11.3359C329.94 11.3359 329.393 11.5964 328.977 12.1172C328.617 12.5703 328.411 13.1589 328.359 13.8828H332.789ZM353.844 6.92188L351.094 18.7109H349.25L347.828 12.0234C347.677 11.3307 347.432 10.0469 347.094 8.17188H346.82C346.581 9.71354 346.346 10.987 346.117 11.9922L344.609 18.7109H342.773L340.148 6.92188H341.586L342.93 13.5156C343.133 14.4896 343.352 15.7786 343.586 17.3828H343.859C344.271 15.1693 344.51 13.901 344.578 13.5781L346.039 6.92188H347.969L349.398 13.6719C349.565 14.5 349.799 15.737 350.102 17.3828H350.375C350.448 16.9974 350.568 16.3203 350.734 15.3516C350.854 14.6693 350.964 14.0938 351.062 13.625L352.469 6.92188H353.844ZM361.836 14.8125H356.109C356.109 15.8646 356.357 16.6693 356.852 17.2266C357.268 17.6953 357.82 17.9297 358.508 17.9297C359.586 17.9297 360.279 17.375 360.586 16.2656L361.789 16.6641C361.253 18.1589 360.154 18.9062 358.492 18.9062C357.299 18.9062 356.375 18.4792 355.719 17.625C355.135 16.8698 354.844 15.8776 354.844 14.6484C354.844 13.2734 355.221 12.1823 355.977 11.375C356.622 10.6875 357.424 10.3438 358.383 10.3438C359.477 10.3438 360.341 10.7604 360.977 11.5938C361.549 12.3438 361.836 13.3203 361.836 14.5234V14.8125ZM360.57 13.8828C360.503 13.0078 360.255 12.349 359.828 11.9062C359.458 11.526 358.982 11.3359 358.398 11.3359C357.721 11.3359 357.174 11.5964 356.758 12.1172C356.398 12.5703 356.193 13.1589 356.141 13.8828H360.57ZM365.539 6.71094V11.7891C365.836 11.2995 366.216 10.9271 366.68 10.6719C367.076 10.4531 367.49 10.3438 367.922 10.3438C368.917 10.3438 369.701 10.7604 370.273 11.5938C370.799 12.3594 371.062 13.3672 371.062 14.6172C371.062 16.0182 370.706 17.1224 369.992 17.9297C369.404 18.5911 368.682 18.9219 367.828 18.9219C366.802 18.9219 366.008 18.4193 365.445 17.4141L365.203 18.7109H364.242V6.71094H365.539ZM365.539 13V16.3438C366.07 17.3594 366.742 17.8672 367.555 17.8672C368.237 17.8672 368.779 17.5573 369.18 16.9375C369.549 16.3594 369.734 15.5911 369.734 14.6328C369.734 13.5339 369.51 12.7005 369.062 12.1328C368.698 11.6641 368.227 11.4297 367.648 11.4297C366.773 11.4297 366.07 11.9531 365.539 13ZM379.016 12.3125L377.766 12.7109C377.49 11.7734 376.898 11.3047 375.992 11.3047C375.435 11.3047 375.008 11.4271 374.711 11.6719C374.456 11.8802 374.328 12.1484 374.328 12.4766C374.328 12.8932 374.458 13.2005 374.719 13.3984C374.958 13.5807 375.388 13.7474 376.008 13.8984L376.664 14.0547C377.659 14.2943 378.344 14.612 378.719 15.0078C379.052 15.3568 379.219 15.8464 379.219 16.4766C379.219 17.2474 378.924 17.8516 378.336 18.2891C377.779 18.7005 377.023 18.9062 376.07 18.9062C374.393 18.9062 373.31 18.2448 372.82 16.9219L374.086 16.4688C374.404 17.4531 375.076 17.9453 376.102 17.9453C376.773 17.9453 377.268 17.7943 377.586 17.4922C377.831 17.263 377.953 16.9661 377.953 16.6016C377.953 16.1432 377.823 15.8151 377.562 15.6172C377.328 15.4401 376.862 15.2604 376.164 15.0781L375.508 14.9375C374.549 14.6927 373.896 14.3724 373.547 13.9766C373.255 13.638 373.109 13.1693 373.109 12.5703C373.109 11.8672 373.383 11.3125 373.93 10.9062C374.445 10.5312 375.138 10.3438 376.008 10.3438C377.534 10.3438 378.536 11 379.016 12.3125ZM382.914 10.5391V18.7109H381.602V10.5391H382.914ZM383.062 7.38281V8.96875H381.461V7.38281H383.062ZM387.539 7.71094V10.5391H389.492V11.5469H387.539V16.5859C387.539 17.4714 387.917 17.9141 388.672 17.9141C389.062 17.9141 389.404 17.8802 389.695 17.8125L389.633 18.8203C389.263 18.8776 388.841 18.9062 388.367 18.9062C386.961 18.9062 386.258 18.2109 386.258 16.8203V11.5469H384.93V10.5391H386.258V7.99219L387.539 7.71094ZM397.977 14.8125H392.25C392.25 15.8646 392.497 16.6693 392.992 17.2266C393.409 17.6953 393.961 17.9297 394.648 17.9297C395.727 17.9297 396.419 17.375 396.727 16.2656L397.93 16.6641C397.393 18.1589 396.294 18.9062 394.633 18.9062C393.44 18.9062 392.516 18.4792 391.859 17.625C391.276 16.8698 390.984 15.8776 390.984 14.6484C390.984 13.2734 391.362 12.1823 392.117 11.375C392.763 10.6875 393.565 10.3438 394.523 10.3438C395.617 10.3438 396.482 10.7604 397.117 11.5938C397.69 12.3438 397.977 13.3203 397.977 14.5234V14.8125ZM396.711 13.8828C396.643 13.0078 396.396 12.349 395.969 11.9062C395.599 11.526 395.122 11.3359 394.539 11.3359C393.862 11.3359 393.315 11.5964 392.898 12.1172C392.539 12.5703 392.333 13.1589 392.281 13.8828H396.711Z" fill="currentColor"/>
<path d="M256.492 57.2578C256.758 56.4557 257.219 55.8516 257.875 55.4453C258.432 55.0964 259.083 54.9219 259.828 54.9219C260.854 54.9219 261.674 55.2214 262.289 55.8203C262.826 56.3411 263.094 56.9896 263.094 57.7656C263.094 58.5208 262.872 59.138 262.43 59.6172C262.044 60.0391 261.531 60.3125 260.891 60.4375V60.5859C261.714 60.7578 262.344 61.1302 262.781 61.7031C263.161 62.2083 263.352 62.8177 263.352 63.5312C263.352 64.6198 262.984 65.4792 262.25 66.1094C261.62 66.651 260.82 66.9219 259.852 66.9219C258.055 66.9219 256.865 66.1484 256.281 64.6016L257.562 64.1172C257.786 64.7682 258.102 65.2266 258.508 65.4922C258.857 65.7214 259.305 65.8359 259.852 65.8359C260.539 65.8359 261.076 65.6042 261.461 65.1406C261.805 64.7292 261.977 64.1979 261.977 63.5469C261.977 61.9531 261.102 61.1562 259.352 61.1562H258.461V60.0234H259.258C260.122 60.0234 260.768 59.8073 261.195 59.375C261.555 59.0104 261.734 58.513 261.734 57.8828C261.734 57.2578 261.529 56.7734 261.117 56.4297C260.779 56.1484 260.344 56.0078 259.812 56.0078C259.286 56.0078 258.841 56.1641 258.477 56.4766C258.133 56.7734 257.896 57.1771 257.766 57.6875L256.492 57.2578ZM267.305 64.9688V66.7109H265.562V64.9688H267.305ZM283.242 54.9219V62.7734C283.242 64.2318 282.786 65.3255 281.875 66.0547C281.135 66.6432 280.172 66.9375 278.984 66.9375C277.599 66.9375 276.529 66.5547 275.773 65.7891C275.065 65.0703 274.711 64.0651 274.711 62.7734V54.9219H276.102V62.7266C276.102 64.763 277.073 65.7812 279.016 65.7812C280.958 65.7812 281.93 64.763 281.93 62.7266V54.9219H283.242ZM291.883 60.3125L290.633 60.7109C290.357 59.7734 289.766 59.3047 288.859 59.3047C288.302 59.3047 287.875 59.4271 287.578 59.6719C287.323 59.8802 287.195 60.1484 287.195 60.4766C287.195 60.8932 287.326 61.2005 287.586 61.3984C287.826 61.5807 288.255 61.7474 288.875 61.8984L289.531 62.0547C290.526 62.2943 291.211 62.612 291.586 63.0078C291.919 63.3568 292.086 63.8464 292.086 64.4766C292.086 65.2474 291.792 65.8516 291.203 66.2891C290.646 66.7005 289.891 66.9062 288.938 66.9062C287.26 66.9062 286.177 66.2448 285.688 64.9219L286.953 64.4688C287.271 65.4531 287.943 65.9453 288.969 65.9453C289.641 65.9453 290.135 65.7943 290.453 65.4922C290.698 65.263 290.82 64.9661 290.82 64.6016C290.82 64.1432 290.69 63.8151 290.43 63.6172C290.195 63.4401 289.729 63.2604 289.031 63.0781L288.375 62.9375C287.417 62.6927 286.763 62.3724 286.414 61.9766C286.122 61.638 285.977 61.1693 285.977 60.5703C285.977 59.8672 286.25 59.3125 286.797 58.9062C287.312 58.5312 288.005 58.3438 288.875 58.3438C290.401 58.3438 291.404 59 291.883 60.3125ZM300.953 62.8125H295.227C295.227 63.8646 295.474 64.6693 295.969 65.2266C296.385 65.6953 296.938 65.9297 297.625 65.9297C298.703 65.9297 299.396 65.375 299.703 64.2656L300.906 64.6641C300.37 66.1589 299.271 66.9062 297.609 66.9062C296.417 66.9062 295.492 66.4792 294.836 65.625C294.253 64.8698 293.961 63.8776 293.961 62.6484C293.961 61.2734 294.339 60.1823 295.094 59.375C295.74 58.6875 296.542 58.3438 297.5 58.3438C298.594 58.3438 299.458 58.7604 300.094 59.5938C300.667 60.3438 300.953 61.3203 300.953 62.5234V62.8125ZM299.688 61.8828C299.62 61.0078 299.372 60.349 298.945 59.9062C298.576 59.526 298.099 59.3359 297.516 59.3359C296.839 59.3359 296.292 59.5964 295.875 60.1172C295.516 60.5703 295.31 61.1589 295.258 61.8828H299.688ZM307.148 54.7969L306.992 55.7734C306.643 55.7266 306.409 55.7031 306.289 55.7031C305.841 55.7031 305.526 55.8177 305.344 56.0469C305.182 56.2448 305.102 56.5573 305.102 56.9844V58.5391H306.922V59.5469H305.102V66.7109H303.82V59.5469H302.383V58.5391H303.82V56.9375C303.82 55.4531 304.568 54.7109 306.062 54.7109C306.344 54.7109 306.706 54.7396 307.148 54.7969ZM315.18 58.5391V66.7109H313.93V65.2109C313.576 65.7682 313.128 66.2005 312.586 66.5078C312.102 66.7734 311.602 66.9062 311.086 66.9062C310.367 66.9062 309.799 66.6849 309.383 66.2422C308.992 65.8307 308.797 65.2786 308.797 64.5859V58.5391H310.125V64.1875C310.125 65.2448 310.594 65.7734 311.531 65.7734C311.979 65.7734 312.432 65.6016 312.891 65.2578C313.292 64.9557 313.622 64.5755 313.883 64.1172V58.5391H315.18ZM319.422 54.7109V66.7109H318.125V54.7109H319.422ZM327.148 54.9219H331.117C333.815 54.9219 335.164 55.9505 335.164 58.0078C335.164 58.8047 334.927 59.4661 334.453 59.9922C334.021 60.4766 333.424 60.8047 332.664 60.9766L335.484 66.7109H333.945L331.352 61.2031H328.508V66.7109H327.148V54.9219ZM328.508 56.0391V60.1172H330.938C332.807 60.1172 333.742 59.4193 333.742 58.0234C333.742 57.3151 333.508 56.8021 333.039 56.4844C332.602 56.1875 331.935 56.0391 331.039 56.0391H328.508ZM344 62.8125H338.273C338.273 63.8646 338.521 64.6693 339.016 65.2266C339.432 65.6953 339.984 65.9297 340.672 65.9297C341.75 65.9297 342.443 65.375 342.75 64.2656L343.953 64.6641C343.417 66.1589 342.318 66.9062 340.656 66.9062C339.464 66.9062 338.539 66.4792 337.883 65.625C337.299 64.8698 337.008 63.8776 337.008 62.6484C337.008 61.2734 337.385 60.1823 338.141 59.375C338.786 58.6875 339.589 58.3438 340.547 58.3438C341.641 58.3438 342.505 58.7604 343.141 59.5938C343.714 60.3438 344 61.3203 344 62.5234V62.8125ZM342.734 61.8828C342.667 61.0078 342.419 60.349 341.992 59.9062C341.622 59.526 341.146 59.3359 340.562 59.3359C339.885 59.3359 339.339 59.5964 338.922 60.1172C338.562 60.5703 338.357 61.1589 338.305 61.8828H342.734ZM351.93 60.3125L350.68 60.7109C350.404 59.7734 349.812 59.3047 348.906 59.3047C348.349 59.3047 347.922 59.4271 347.625 59.6719C347.37 59.8802 347.242 60.1484 347.242 60.4766C347.242 60.8932 347.372 61.2005 347.633 61.3984C347.872 61.5807 348.302 61.7474 348.922 61.8984L349.578 62.0547C350.573 62.2943 351.258 62.612 351.633 63.0078C351.966 63.3568 352.133 63.8464 352.133 64.4766C352.133 65.2474 351.839 65.8516 351.25 66.2891C350.693 66.7005 349.938 66.9062 348.984 66.9062C347.307 66.9062 346.224 66.2448 345.734 64.9219L347 64.4688C347.318 65.4531 347.99 65.9453 349.016 65.9453C349.688 65.9453 350.182 65.7943 350.5 65.4922C350.745 65.263 350.867 64.9661 350.867 64.6016C350.867 64.1432 350.737 63.8151 350.477 63.6172C350.242 63.4401 349.776 63.2604 349.078 63.0781L348.422 62.9375C347.464 62.6927 346.81 62.3724 346.461 61.9766C346.169 61.638 346.023 61.1693 346.023 60.5703C346.023 59.8672 346.297 59.3125 346.844 58.9062C347.359 58.5312 348.052 58.3438 348.922 58.3438C350.448 58.3438 351.451 59 351.93 60.3125ZM355.766 58.5391V59.8203C356.375 58.8464 357.18 58.3594 358.18 58.3594C359.18 58.3594 359.969 58.776 360.547 59.6094C361.073 60.3646 361.336 61.362 361.336 62.6016C361.336 64.013 360.982 65.1172 360.273 65.9141C359.685 66.5755 358.961 66.9062 358.102 66.9062C357.112 66.9062 356.349 66.4297 355.812 65.4766V69.6094H354.516V58.5391H355.766ZM355.812 60.9844V64.3281C356.344 65.3438 357.016 65.8516 357.828 65.8516C358.51 65.8516 359.052 65.5443 359.453 64.9297C359.823 64.3568 360.008 63.5911 360.008 62.6328C360.008 61.5339 359.784 60.6953 359.336 60.1172C358.966 59.6484 358.495 59.4141 357.922 59.4141C357.047 59.4141 356.344 59.9375 355.812 60.9844ZM366.781 58.3594C367.891 58.3594 368.768 58.7891 369.414 59.6484C369.992 60.4141 370.281 61.4036 370.281 62.6172C370.281 64.0182 369.911 65.1146 369.172 65.9062C368.542 66.5833 367.74 66.9219 366.766 66.9219C365.641 66.9219 364.755 66.4896 364.109 65.625C363.542 64.8646 363.258 63.8776 363.258 62.6641C363.258 61.263 363.628 60.1667 364.367 59.375C364.997 58.6979 365.802 58.3594 366.781 58.3594ZM366.781 59.3672C366.042 59.3672 365.479 59.6875 365.094 60.3281C364.755 60.8906 364.586 61.6589 364.586 62.6328C364.586 63.7526 364.805 64.599 365.242 65.1719C365.617 65.6667 366.125 65.9141 366.766 65.9141C367.5 65.9141 368.057 65.5964 368.438 64.9609C368.781 64.3932 368.953 63.6172 368.953 62.6328C368.953 61.5182 368.734 60.6771 368.297 60.1094C367.922 59.6146 367.417 59.3672 366.781 59.3672ZM373.969 58.5391V60.0234C374.833 58.9141 375.786 58.3594 376.828 58.3594C377.562 58.3594 378.135 58.5911 378.547 59.0547C378.917 59.4661 379.102 60.013 379.102 60.6953V66.7109H377.773V61.1641C377.773 60.0495 377.315 59.4922 376.398 59.4922C375.57 59.4922 374.776 60.0339 374.016 61.1172V66.7109H372.719V58.5391H373.969ZM387.523 60.3125L386.273 60.7109C385.997 59.7734 385.406 59.3047 384.5 59.3047C383.943 59.3047 383.516 59.4271 383.219 59.6719C382.964 59.8802 382.836 60.1484 382.836 60.4766C382.836 60.8932 382.966 61.2005 383.227 61.3984C383.466 61.5807 383.896 61.7474 384.516 61.8984L385.172 62.0547C386.167 62.2943 386.852 62.612 387.227 63.0078C387.56 63.3568 387.727 63.8464 387.727 64.4766C387.727 65.2474 387.432 65.8516 386.844 66.2891C386.286 66.7005 385.531 66.9062 384.578 66.9062C382.901 66.9062 381.818 66.2448 381.328 64.9219L382.594 64.4688C382.911 65.4531 383.583 65.9453 384.609 65.9453C385.281 65.9453 385.776 65.7943 386.094 65.4922C386.339 65.263 386.461 64.9661 386.461 64.6016C386.461 64.1432 386.331 63.8151 386.07 63.6172C385.836 63.4401 385.37 63.2604 384.672 63.0781L384.016 62.9375C383.057 62.6927 382.404 62.3724 382.055 61.9766C381.763 61.638 381.617 61.1693 381.617 60.5703C381.617 59.8672 381.891 59.3125 382.438 58.9062C382.953 58.5312 383.646 58.3438 384.516 58.3438C386.042 58.3438 387.044 59 387.523 60.3125ZM396.594 62.8125H390.867C390.867 63.8646 391.115 64.6693 391.609 65.2266C392.026 65.6953 392.578 65.9297 393.266 65.9297C394.344 65.9297 395.036 65.375 395.344 64.2656L396.547 64.6641C396.01 66.1589 394.911 66.9062 393.25 66.9062C392.057 66.9062 391.133 66.4792 390.477 65.625C389.893 64.8698 389.602 63.8776 389.602 62.6484C389.602 61.2734 389.979 60.1823 390.734 59.375C391.38 58.6875 392.182 58.3438 393.141 58.3438C394.234 58.3438 395.099 58.7604 395.734 59.5938C396.307 60.3438 396.594 61.3203 396.594 62.5234V62.8125ZM395.328 61.8828C395.26 61.0078 395.013 60.349 394.586 59.9062C394.216 59.526 393.74 59.3359 393.156 59.3359C392.479 59.3359 391.932 59.5964 391.516 60.1172C391.156 60.5703 390.951 61.1589 390.898 61.8828H395.328Z" fill="currentColor"/>
<path d="M96.4375 10.0234C96.6146 8.96094 97.0521 8.15625 97.75 7.60938C98.3385 7.15104 99.0573 6.92188 99.9062 6.92188C100.948 6.92188 101.766 7.22396 102.359 7.82812C102.891 8.36979 103.156 9.07552 103.156 9.94531C103.156 10.6536 102.971 11.2995 102.602 11.8828C102.242 12.4453 101.622 13.112 100.742 13.8828C99.2109 15.2318 98.1875 16.474 97.6719 17.6094H103.172V18.7109H96.3438V17.7188C96.9792 16.2188 98.1198 14.7057 99.7656 13.1797C100.62 12.3828 101.18 11.7474 101.445 11.2734C101.669 10.8776 101.781 10.4349 101.781 9.94531C101.781 9.3151 101.583 8.82552 101.188 8.47656C100.849 8.17448 100.419 8.02344 99.8984 8.02344C98.6745 8.02344 97.9583 8.79167 97.75 10.3281L96.4375 10.0234ZM107.234 16.9688V18.7109H105.492V16.9688H107.234ZM114.672 6.92188H118.641C121.339 6.92188 122.688 7.95052 122.688 10.0078C122.688 10.8047 122.451 11.4661 121.977 11.9922C121.544 12.4766 120.948 12.8047 120.188 12.9766L123.008 18.7109H121.469L118.875 13.2031H116.031V18.7109H114.672V6.92188ZM116.031 8.03906V12.1172H118.461C120.331 12.1172 121.266 11.4193 121.266 10.0234C121.266 9.3151 121.031 8.80208 120.562 8.48438C120.125 8.1875 119.458 8.03906 118.562 8.03906H116.031ZM131.523 14.8125H125.797C125.797 15.8646 126.044 16.6693 126.539 17.2266C126.956 17.6953 127.508 17.9297 128.195 17.9297C129.273 17.9297 129.966 17.375 130.273 16.2656L131.477 16.6641C130.94 18.1589 129.841 18.9062 128.18 18.9062C126.987 18.9062 126.062 18.4792 125.406 17.625C124.823 16.8698 124.531 15.8776 124.531 14.6484C124.531 13.2734 124.909 12.1823 125.664 11.375C126.31 10.6875 127.112 10.3438 128.07 10.3438C129.164 10.3438 130.029 10.7604 130.664 11.5938C131.237 12.3438 131.523 13.3203 131.523 14.5234V14.8125ZM130.258 13.8828C130.19 13.0078 129.943 12.349 129.516 11.9062C129.146 11.526 128.669 11.3359 128.086 11.3359C127.409 11.3359 126.862 11.5964 126.445 12.1172C126.086 12.5703 125.88 13.1589 125.828 13.8828H130.258ZM140.25 10.5391V21.6094H138.953V17.5312C138.406 18.4479 137.628 18.9062 136.617 18.9062C135.612 18.9062 134.812 18.4792 134.219 17.625C133.682 16.8542 133.414 15.8464 133.414 14.6016C133.414 13.1901 133.755 12.0964 134.438 11.3203C135.005 10.6797 135.716 10.3594 136.57 10.3594C137.633 10.3594 138.448 10.8411 139.016 11.8047L139.273 10.5391H140.25ZM138.953 12.9844C138.432 11.9375 137.74 11.4141 136.875 11.4141C136.203 11.4141 135.672 11.7214 135.281 12.3359C134.922 12.9089 134.742 13.6745 134.742 14.6328C134.742 15.7266 134.984 16.5651 135.469 17.1484C135.859 17.6172 136.354 17.8516 136.953 17.8516C137.75 17.8516 138.417 17.3438 138.953 16.3281V12.9844ZM149.5 10.5391V18.7109H148.25V17.2109C147.896 17.7682 147.448 18.2005 146.906 18.5078C146.422 18.7734 145.922 18.9062 145.406 18.9062C144.688 18.9062 144.12 18.6849 143.703 18.2422C143.312 17.8307 143.117 17.2786 143.117 16.5859V10.5391H144.445V16.1875C144.445 17.2448 144.914 17.7734 145.852 17.7734C146.299 17.7734 146.753 17.6016 147.211 17.2578C147.612 16.9557 147.943 16.5755 148.203 16.1172V10.5391H149.5ZM158.93 14.8125H153.203C153.203 15.8646 153.451 16.6693 153.945 17.2266C154.362 17.6953 154.914 17.9297 155.602 17.9297C156.68 17.9297 157.372 17.375 157.68 16.2656L158.883 16.6641C158.346 18.1589 157.247 18.9062 155.586 18.9062C154.393 18.9062 153.469 18.4792 152.812 17.625C152.229 16.8698 151.938 15.8776 151.938 14.6484C151.938 13.2734 152.315 12.1823 153.07 11.375C153.716 10.6875 154.518 10.3438 155.477 10.3438C156.57 10.3438 157.435 10.7604 158.07 11.5938C158.643 12.3438 158.93 13.3203 158.93 14.5234V14.8125ZM157.664 13.8828C157.596 13.0078 157.349 12.349 156.922 11.9062C156.552 11.526 156.076 11.3359 155.492 11.3359C154.815 11.3359 154.268 11.5964 153.852 12.1172C153.492 12.5703 153.286 13.1589 153.234 13.8828H157.664ZM166.859 12.3125L165.609 12.7109C165.333 11.7734 164.742 11.3047 163.836 11.3047C163.279 11.3047 162.852 11.4271 162.555 11.6719C162.299 11.8802 162.172 12.1484 162.172 12.4766C162.172 12.8932 162.302 13.2005 162.562 13.3984C162.802 13.5807 163.232 13.7474 163.852 13.8984L164.508 14.0547C165.503 14.2943 166.188 14.612 166.562 15.0078C166.896 15.3568 167.062 15.8464 167.062 16.4766C167.062 17.2474 166.768 17.8516 166.18 18.2891C165.622 18.7005 164.867 18.9062 163.914 18.9062C162.237 18.9062 161.154 18.2448 160.664 16.9219L161.93 16.4688C162.247 17.4531 162.919 17.9453 163.945 17.9453C164.617 17.9453 165.112 17.7943 165.43 17.4922C165.674 17.263 165.797 16.9661 165.797 16.6016C165.797 16.1432 165.667 15.8151 165.406 15.6172C165.172 15.4401 164.706 15.2604 164.008 15.0781L163.352 14.9375C162.393 14.6927 161.74 14.3724 161.391 13.9766C161.099 13.638 160.953 13.1693 160.953 12.5703C160.953 11.8672 161.227 11.3125 161.773 10.9062C162.289 10.5312 162.982 10.3438 163.852 10.3438C165.378 10.3438 166.38 11 166.859 12.3125ZM171.117 7.71094V10.5391H173.07V11.5469H171.117V16.5859C171.117 17.4714 171.495 17.9141 172.25 17.9141C172.641 17.9141 172.982 17.8802 173.273 17.8125L173.211 18.8203C172.841 18.8776 172.419 18.9062 171.945 18.9062C170.539 18.9062 169.836 18.2109 169.836 16.8203V11.5469H168.508V10.5391H169.836V7.99219L171.117 7.71094Z" fill="currentColor"/>
<line x1="81" y1="33" x2="81" y2="47" stroke="currentColor" stroke-width="2"/>
</svg>
