<svg width="291" height="124" viewBox="0 0 291 124" fill="none" xmlns="http://www.w3.org/2000/svg">
  <style>
    :root {
      color-scheme: dark light;
      color: #3c3c43;
    }
    @media (prefers-color-scheme: dark) {
      :root {
        color: #dfdfd6;
      }
    }
  </style>
<path d="M3.85227 15.125V23H1.84091V5.54545H3.85227V11.9545H4.02273C4.32955 11.2784 4.78977 10.7415 5.40341 10.3438C6.02273 9.94034 6.84659 9.73864 7.875 9.73864C8.76705 9.73864 9.5483 9.91761 10.2188 10.2756C10.8892 10.6278 11.4091 11.1705 11.7784 11.9034C12.1534 12.6307 12.3409 13.5568 12.3409 14.6818V23H10.3295V14.8182C10.3295 13.7784 10.0597 12.9744 9.51989 12.4062C8.9858 11.8324 8.24432 11.5455 7.29545 11.5455C6.63636 11.5455 6.04545 11.6847 5.52273 11.9631C5.00568 12.2415 4.59659 12.6477 4.29545 13.1818C4 13.7159 3.85227 14.3636 3.85227 15.125ZM21.7138 9.90909V11.6136H14.9297V9.90909H21.7138ZM16.907 6.77273H18.9183V19.25C18.9183 19.8182 19.0007 20.2443 19.1655 20.5284C19.3359 20.8068 19.5518 20.9943 19.8132 21.0909C20.0803 21.1818 20.3615 21.2273 20.657 21.2273C20.8786 21.2273 21.0604 21.2159 21.2024 21.1932C21.3445 21.1648 21.4581 21.142 21.5433 21.125L21.9524 22.9318C21.8161 22.983 21.6257 23.0341 21.3814 23.0852C21.1371 23.142 20.8274 23.1705 20.4524 23.1705C19.8842 23.1705 19.3274 23.0483 18.782 22.804C18.2422 22.5597 17.7933 22.1875 17.4354 21.6875C17.0831 21.1875 16.907 20.5568 16.907 19.7955V6.77273ZM30.4325 9.90909V11.6136H23.6484V9.90909H30.4325ZM25.6257 6.77273H27.6371V19.25C27.6371 19.8182 27.7195 20.2443 27.8842 20.5284C28.0547 20.8068 28.2706 20.9943 28.532 21.0909C28.799 21.1818 29.0803 21.2273 29.3757 21.2273C29.5973 21.2273 29.7791 21.2159 29.9212 21.1932C30.0632 21.1648 30.1768 21.142 30.2621 21.125L30.6712 22.9318C30.5348 22.983 30.3445 23.0341 30.1001 23.0852C29.8558 23.142 29.5462 23.1705 29.1712 23.1705C28.603 23.1705 28.0462 23.0483 27.5007 22.804C26.9609 22.5597 26.5121 22.1875 26.1541 21.6875C25.8018 21.1875 25.6257 20.5568 25.6257 19.7955V6.77273ZM33.4581 27.9091V9.90909H35.4013V11.9886H35.6399C35.7876 11.7614 35.9922 11.4716 36.2536 11.1193C36.5206 10.7614 36.9013 10.4432 37.3956 10.1648C37.8956 9.88068 38.5717 9.73864 39.424 9.73864C40.5263 9.73864 41.4979 10.0142 42.3388 10.5653C43.1797 11.1165 43.8359 11.8977 44.3075 12.9091C44.7791 13.9205 45.0149 15.1136 45.0149 16.4886C45.0149 17.875 44.7791 19.0767 44.3075 20.0938C43.8359 21.1051 43.1825 21.8892 42.3473 22.446C41.5121 22.9972 40.549 23.2727 39.4581 23.2727C38.6172 23.2727 37.9439 23.1335 37.4382 22.8551C36.9325 22.571 36.5433 22.25 36.2706 21.892C35.9979 21.5284 35.7876 21.2273 35.6399 20.9886H35.4695V27.9091H33.4581ZM35.4354 16.4545C35.4354 17.4432 35.5803 18.3153 35.87 19.071C36.1598 19.821 36.5831 20.4091 37.1399 20.8352C37.6967 21.2557 38.3786 21.4659 39.1854 21.4659C40.0263 21.4659 40.728 21.2443 41.2905 20.8011C41.8587 20.3523 42.2848 19.75 42.5689 18.9943C42.8587 18.233 43.0036 17.3864 43.0036 16.4545C43.0036 15.5341 42.8615 14.7045 42.5774 13.9659C42.299 13.2216 41.8757 12.6335 41.3075 12.2017C40.745 11.7642 40.0376 11.5455 39.1854 11.5455C38.3672 11.5455 37.6797 11.7528 37.1229 12.1676C36.5661 12.5767 36.1456 13.1506 35.8615 13.8892C35.5774 14.6222 35.4354 15.4773 35.4354 16.4545ZM57.3558 12.8409L55.549 13.3523C55.4354 13.0511 55.2678 12.7585 55.0462 12.4744C54.8303 12.1847 54.5348 11.946 54.1598 11.7585C53.7848 11.571 53.3047 11.4773 52.7195 11.4773C51.9183 11.4773 51.2507 11.6619 50.7166 12.0312C50.1882 12.3949 49.924 12.858 49.924 13.4205C49.924 13.9205 50.1058 14.3153 50.4695 14.6051C50.8331 14.8949 51.4013 15.1364 52.174 15.3295L54.1172 15.8068C55.2876 16.0909 56.1598 16.5256 56.7337 17.1108C57.3075 17.6903 57.5945 18.4375 57.5945 19.3523C57.5945 20.1023 57.3786 20.7727 56.9467 21.3636C56.5206 21.9545 55.924 22.4205 55.157 22.7614C54.3899 23.1023 53.4979 23.2727 52.4808 23.2727C51.1456 23.2727 50.0405 22.983 49.1655 22.4034C48.2905 21.8239 47.7365 20.9773 47.5036 19.8636L49.4126 19.3864C49.5945 20.0909 49.9382 20.6193 50.4439 20.9716C50.9553 21.3239 51.6229 21.5 52.4467 21.5C53.3842 21.5 54.1286 21.3011 54.6797 20.9034C55.2365 20.5 55.5149 20.017 55.5149 19.4545C55.5149 19 55.3558 18.6193 55.0376 18.3125C54.7195 18 54.2308 17.767 53.5717 17.6136L51.3899 17.1023C50.1911 16.8182 49.3104 16.3778 48.7479 15.7812C48.1911 15.179 47.9126 14.4261 47.9126 13.5227C47.9126 12.7841 48.12 12.1307 48.5348 11.5625C48.9553 10.9943 49.5263 10.5483 50.2479 10.2244C50.9751 9.90057 51.799 9.73864 52.7195 9.73864C54.0149 9.73864 55.032 10.0227 55.7706 10.5909C56.5149 11.1591 57.0433 11.9091 57.3558 12.8409ZM62.0881 23.1364C61.6676 23.1364 61.3068 22.9858 61.0057 22.6847C60.7045 22.3835 60.554 22.0227 60.554 21.6023C60.554 21.1818 60.7045 20.821 61.0057 20.5199C61.3068 20.2187 61.6676 20.0682 62.0881 20.0682C62.5085 20.0682 62.8693 20.2187 63.1705 20.5199C63.4716 20.821 63.6222 21.1818 63.6222 21.6023C63.6222 21.8807 63.5511 22.1364 63.4091 22.3693C63.2727 22.6023 63.0881 22.7898 62.8551 22.9318C62.6278 23.0682 62.3722 23.1364 62.0881 23.1364ZM62.0881 13.4205C61.6676 13.4205 61.3068 13.2699 61.0057 12.9688C60.7045 12.6676 60.554 12.3068 60.554 11.8864C60.554 11.4659 60.7045 11.1051 61.0057 10.804C61.3068 10.5028 61.6676 10.3523 62.0881 10.3523C62.5085 10.3523 62.8693 10.5028 63.1705 10.804C63.4716 11.1051 63.6222 11.4659 63.6222 11.8864C63.6222 12.1648 63.5511 12.4205 63.4091 12.6534C63.2727 12.8864 63.0881 13.0739 62.8551 13.2159C62.6278 13.3523 62.3722 13.4205 62.0881 13.4205ZM73.402 4.72727L67.777 25.625H65.9361L71.5611 4.72727H73.402ZM81.9567 4.72727L76.3317 25.625H74.4908L80.1158 4.72727H81.9567ZM86.3523 5.54545V23H84.3409V5.54545H86.3523ZM95.3544 23.2727C94.1726 23.2727 93.1357 22.9915 92.2436 22.429C91.3572 21.8665 90.6641 21.0795 90.1641 20.0682C89.6697 19.0568 89.4226 17.875 89.4226 16.5227C89.4226 15.1591 89.6697 13.9687 90.1641 12.9517C90.6641 11.9347 91.3572 11.1449 92.2436 10.5824C93.1357 10.0199 94.1726 9.73864 95.3544 9.73864C96.5362 9.73864 97.5703 10.0199 98.4567 10.5824C99.3487 11.1449 100.042 11.9347 100.536 12.9517C101.036 13.9687 101.286 15.1591 101.286 16.5227C101.286 17.875 101.036 19.0568 100.536 20.0682C100.042 21.0795 99.3487 21.8665 98.4567 22.429C97.5703 22.9915 96.5362 23.2727 95.3544 23.2727ZM95.3544 21.4659C96.2521 21.4659 96.9908 21.2358 97.5703 20.7756C98.1499 20.3153 98.5788 19.7102 98.8572 18.9602C99.1357 18.2102 99.2749 17.3977 99.2749 16.5227C99.2749 15.6477 99.1357 14.8324 98.8572 14.0767C98.5788 13.321 98.1499 12.7102 97.5703 12.2443C96.9908 11.7784 96.2521 11.5455 95.3544 11.5455C94.4567 11.5455 93.718 11.7784 93.1385 12.2443C92.5589 12.7102 92.13 13.321 91.8516 14.0767C91.5732 14.8324 91.4339 15.6477 91.4339 16.5227C91.4339 17.3977 91.5732 18.2102 91.8516 18.9602C92.13 19.7102 92.5589 20.3153 93.1385 20.7756C93.718 21.2358 94.4567 21.4659 95.3544 21.4659ZM109.675 23.2727C108.447 23.2727 107.391 22.983 106.504 22.4034C105.618 21.8239 104.936 21.0256 104.459 20.0085C103.982 18.9915 103.743 17.8295 103.743 16.5227C103.743 15.1932 103.987 14.0199 104.476 13.0028C104.97 11.9801 105.658 11.1818 106.538 10.608C107.425 10.0284 108.459 9.73864 109.641 9.73864C110.561 9.73864 111.391 9.90909 112.129 10.25C112.868 10.5909 113.473 11.0682 113.945 11.6818C114.416 12.2955 114.709 13.0114 114.822 13.8295H112.811C112.658 13.233 112.317 12.7045 111.788 12.2443C111.266 11.7784 110.561 11.5455 109.675 11.5455C108.891 11.5455 108.203 11.75 107.612 12.1591C107.027 12.5625 106.57 13.1335 106.24 13.8722C105.916 14.6051 105.754 15.4659 105.754 16.4545C105.754 17.4659 105.913 18.3466 106.232 19.0966C106.555 19.8466 107.01 20.429 107.595 20.8438C108.186 21.2585 108.879 21.4659 109.675 21.4659C110.197 21.4659 110.672 21.375 111.098 21.1932C111.524 21.0114 111.885 20.75 112.18 20.4091C112.476 20.0682 112.686 19.6591 112.811 19.1818H114.822C114.709 19.9545 114.428 20.6506 113.979 21.2699C113.536 21.8835 112.947 22.3722 112.214 22.7358C111.487 23.0938 110.641 23.2727 109.675 23.2727ZM121.615 23.3068C120.786 23.3068 120.033 23.1506 119.357 22.8381C118.68 22.5199 118.143 22.0625 117.746 21.4659C117.348 20.8636 117.149 20.1364 117.149 19.2841C117.149 18.5341 117.297 17.9261 117.592 17.4602C117.888 16.9886 118.283 16.6193 118.777 16.3523C119.271 16.0852 119.817 15.8864 120.413 15.7557C121.016 15.6193 121.621 15.5114 122.229 15.4318C123.024 15.3295 123.669 15.2528 124.163 15.2017C124.663 15.1449 125.027 15.0511 125.254 14.9205C125.487 14.7898 125.604 14.5625 125.604 14.2386V14.1705C125.604 13.3295 125.374 12.6761 124.913 12.2102C124.459 11.7443 123.768 11.5114 122.842 11.5114C121.882 11.5114 121.129 11.7216 120.584 12.142C120.038 12.5625 119.655 13.0114 119.433 13.4886L117.524 12.8068C117.865 12.0114 118.32 11.392 118.888 10.9489C119.462 10.5 120.087 10.1875 120.763 10.0114C121.445 9.82955 122.115 9.73864 122.774 9.73864C123.195 9.73864 123.678 9.78977 124.223 9.89204C124.774 9.98864 125.305 10.1903 125.817 10.4972C126.334 10.804 126.763 11.267 127.104 11.8864C127.445 12.5057 127.615 13.3352 127.615 14.375V23H125.604V21.2273H125.501C125.365 21.5114 125.138 21.8153 124.82 22.1392C124.501 22.4631 124.078 22.7386 123.55 22.9659C123.021 23.1932 122.376 23.3068 121.615 23.3068ZM121.922 21.5C122.717 21.5 123.388 21.3438 123.933 21.0312C124.484 20.7188 124.899 20.3153 125.178 19.821C125.462 19.3267 125.604 18.8068 125.604 18.2614V16.4205C125.518 16.5227 125.331 16.6165 125.041 16.7017C124.757 16.7812 124.428 16.8523 124.053 16.9148C123.683 16.9716 123.322 17.0227 122.97 17.0682C122.624 17.108 122.342 17.142 122.126 17.1705C121.604 17.2386 121.115 17.3494 120.661 17.5028C120.212 17.6506 119.848 17.875 119.57 18.1761C119.297 18.4716 119.161 18.875 119.161 19.3864C119.161 20.0852 119.419 20.6136 119.936 20.9716C120.459 21.3239 121.121 21.5 121.922 21.5ZM133.298 5.54545V23H131.286V5.54545H133.298ZM138.993 15.125V23H136.982V5.54545H138.993V11.9545H139.163C139.47 11.2784 139.93 10.7415 140.544 10.3438C141.163 9.94034 141.987 9.73864 143.016 9.73864C143.908 9.73864 144.689 9.91761 145.359 10.2756C146.03 10.6278 146.55 11.1705 146.919 11.9034C147.294 12.6307 147.482 13.5568 147.482 14.6818V23H145.47V14.8182C145.47 13.7784 145.2 12.9744 144.661 12.4062C144.126 11.8324 143.385 11.5455 142.436 11.5455C141.777 11.5455 141.186 11.6847 140.663 11.9631C140.146 12.2415 139.737 12.6477 139.436 13.1818C139.141 13.7159 138.993 14.3636 138.993 15.125ZM156.479 23.2727C155.298 23.2727 154.261 22.9915 153.369 22.429C152.482 21.8665 151.789 21.0795 151.289 20.0682C150.795 19.0568 150.548 17.875 150.548 16.5227C150.548 15.1591 150.795 13.9687 151.289 12.9517C151.789 11.9347 152.482 11.1449 153.369 10.5824C154.261 10.0199 155.298 9.73864 156.479 9.73864C157.661 9.73864 158.695 10.0199 159.582 10.5824C160.474 11.1449 161.167 11.9347 161.661 12.9517C162.161 13.9687 162.411 15.1591 162.411 16.5227C162.411 17.875 162.161 19.0568 161.661 20.0682C161.167 21.0795 160.474 21.8665 159.582 22.429C158.695 22.9915 157.661 23.2727 156.479 23.2727ZM156.479 21.4659C157.377 21.4659 158.116 21.2358 158.695 20.7756C159.275 20.3153 159.704 19.7102 159.982 18.9602C160.261 18.2102 160.4 17.3977 160.4 16.5227C160.4 15.6477 160.261 14.8324 159.982 14.0767C159.704 13.321 159.275 12.7102 158.695 12.2443C158.116 11.7784 157.377 11.5455 156.479 11.5455C155.582 11.5455 154.843 11.7784 154.263 12.2443C153.684 12.7102 153.255 13.321 152.977 14.0767C152.698 14.8324 152.559 15.6477 152.559 16.5227C152.559 17.3977 152.698 18.2102 152.977 18.9602C153.255 19.7102 153.684 20.3153 154.263 20.7756C154.843 21.2358 155.582 21.4659 156.479 21.4659ZM174.754 12.8409L172.947 13.3523C172.834 13.0511 172.666 12.7585 172.445 12.4744C172.229 12.1847 171.933 11.946 171.558 11.7585C171.183 11.571 170.703 11.4773 170.118 11.4773C169.317 11.4773 168.649 11.6619 168.115 12.0312C167.587 12.3949 167.322 12.858 167.322 13.4205C167.322 13.9205 167.504 14.3153 167.868 14.6051C168.232 14.8949 168.8 15.1364 169.572 15.3295L171.516 15.8068C172.686 16.0909 173.558 16.5256 174.132 17.1108C174.706 17.6903 174.993 18.4375 174.993 19.3523C174.993 20.1023 174.777 20.7727 174.345 21.3636C173.919 21.9545 173.322 22.4205 172.555 22.7614C171.788 23.1023 170.896 23.2727 169.879 23.2727C168.544 23.2727 167.439 22.983 166.564 22.4034C165.689 21.8239 165.135 20.9773 164.902 19.8636L166.811 19.3864C166.993 20.0909 167.337 20.6193 167.842 20.9716C168.354 21.3239 169.021 21.5 169.845 21.5C170.783 21.5 171.527 21.3011 172.078 20.9034C172.635 20.5 172.913 20.017 172.913 19.4545C172.913 19 172.754 18.6193 172.436 18.3125C172.118 18 171.629 17.767 170.97 17.6136L168.788 17.1023C167.589 16.8182 166.709 16.3778 166.146 15.7812C165.589 15.179 165.311 14.4261 165.311 13.5227C165.311 12.7841 165.518 12.1307 165.933 11.5625C166.354 10.9943 166.925 10.5483 167.646 10.2244C168.374 9.90057 169.197 9.73864 170.118 9.73864C171.413 9.73864 172.43 10.0227 173.169 10.5909C173.913 11.1591 174.442 11.9091 174.754 12.8409ZM183.714 9.90909V11.6136H176.93V9.90909H183.714ZM178.907 6.77273H180.918V19.25C180.918 19.8182 181.001 20.2443 181.165 20.5284C181.336 20.8068 181.552 20.9943 181.813 21.0909C182.08 21.1818 182.362 21.2273 182.657 21.2273C182.879 21.2273 183.06 21.2159 183.202 21.1932C183.344 21.1648 183.458 21.142 183.543 21.125L183.952 22.9318C183.816 22.983 183.626 23.0341 183.381 23.0852C183.137 23.142 182.827 23.1705 182.452 23.1705C181.884 23.1705 181.327 23.0483 180.782 22.804C180.242 22.5597 179.793 22.1875 179.435 21.6875C179.083 21.1875 178.907 20.5568 178.907 19.7955V6.77273ZM188.205 23.1364C187.785 23.1364 187.424 22.9858 187.123 22.6847C186.822 22.3835 186.671 22.0227 186.671 21.6023C186.671 21.1818 186.822 20.821 187.123 20.5199C187.424 20.2187 187.785 20.0682 188.205 20.0682C188.626 20.0682 188.987 20.2187 189.288 20.5199C189.589 20.821 189.739 21.1818 189.739 21.6023C189.739 21.8807 189.668 22.1364 189.526 22.3693C189.39 22.6023 189.205 22.7898 188.972 22.9318C188.745 23.0682 188.489 23.1364 188.205 23.1364ZM188.205 13.4205C187.785 13.4205 187.424 13.2699 187.123 12.9688C186.822 12.6676 186.671 12.3068 186.671 11.8864C186.671 11.4659 186.822 11.1051 187.123 10.804C187.424 10.5028 187.785 10.3523 188.205 10.3523C188.626 10.3523 188.987 10.5028 189.288 10.804C189.589 11.1051 189.739 11.4659 189.739 11.8864C189.739 12.1648 189.668 12.4205 189.526 12.6534C189.39 12.8864 189.205 13.0739 188.972 13.2159C188.745 13.3523 188.489 13.4205 188.205 13.4205ZM198.769 23.2386C197.769 23.2386 196.869 23.0398 196.067 22.642C195.266 22.2443 194.624 21.6989 194.141 21.0057C193.658 20.3125 193.394 19.5227 193.349 18.6364H195.394C195.474 19.4261 195.832 20.0795 196.468 20.5966C197.11 21.108 197.877 21.3636 198.769 21.3636C199.485 21.3636 200.121 21.196 200.678 20.8608C201.241 20.5256 201.681 20.0653 201.999 19.4801C202.323 18.8892 202.485 18.2216 202.485 17.4773C202.485 16.7159 202.317 16.0369 201.982 15.4403C201.653 14.8381 201.198 14.3636 200.619 14.017C200.039 13.6705 199.377 13.4943 198.633 13.4886C198.099 13.483 197.55 13.5653 196.988 13.7358C196.425 13.9006 195.962 14.1136 195.599 14.375L193.621 14.1364L194.678 5.54545H203.746V7.42045H196.451L195.837 12.5682H195.94C196.298 12.2841 196.746 12.0483 197.286 11.8608C197.826 11.6733 198.388 11.5795 198.974 11.5795C200.042 11.5795 200.994 11.8352 201.829 12.3466C202.67 12.8523 203.329 13.5455 203.806 14.4261C204.289 15.3068 204.531 16.3125 204.531 17.4432C204.531 18.5568 204.281 19.5511 203.781 20.4261C203.286 21.2955 202.604 21.983 201.735 22.4886C200.866 22.9886 199.877 23.2386 198.769 23.2386ZM214.053 5.54545V23H211.939V7.76136H211.837L207.575 10.5909V8.44318L211.939 5.54545H214.053ZM219.618 23L227.425 7.55682V7.42045H218.425V5.54545H229.607V7.52273L221.834 23H219.618ZM238.283 23.2386C237.158 23.2386 236.155 23.0455 235.274 22.6591C234.399 22.2727 233.703 21.7358 233.186 21.0483C232.675 20.3551 232.396 19.5511 232.351 18.6364H234.499C234.544 19.1989 234.737 19.6847 235.078 20.0938C235.419 20.4972 235.865 20.8097 236.416 21.0312C236.967 21.2528 237.578 21.3636 238.249 21.3636C238.999 21.3636 239.663 21.233 240.243 20.9716C240.822 20.7102 241.277 20.3466 241.607 19.8807C241.936 19.4148 242.101 18.875 242.101 18.2614C242.101 17.6193 241.942 17.054 241.624 16.5653C241.305 16.071 240.839 15.6847 240.226 15.4062C239.612 15.1278 238.862 14.9886 237.976 14.9886H236.578V13.1136H237.976C238.669 13.1136 239.277 12.9886 239.8 12.7386C240.328 12.4886 240.74 12.1364 241.036 11.6818C241.337 11.2273 241.487 10.6932 241.487 10.0795C241.487 9.48864 241.357 8.97443 241.095 8.53693C240.834 8.09943 240.464 7.75852 239.987 7.5142C239.516 7.26989 238.959 7.14773 238.317 7.14773C237.714 7.14773 237.146 7.25852 236.612 7.48011C236.084 7.69602 235.652 8.01136 235.317 8.42614C234.982 8.83523 234.8 9.32955 234.771 9.90909H232.726C232.76 8.99432 233.036 8.19318 233.553 7.50568C234.07 6.8125 234.746 6.27273 235.581 5.88636C236.422 5.5 237.345 5.30682 238.351 5.30682C239.43 5.30682 240.357 5.52557 241.129 5.96307C241.902 6.39489 242.496 6.96591 242.911 7.67614C243.325 8.38636 243.533 9.15341 243.533 9.97727C243.533 10.9602 243.274 11.7983 242.757 12.4915C242.246 13.1847 241.55 13.6648 240.669 13.9318V14.0682C241.771 14.25 242.632 14.7187 243.251 15.4744C243.871 16.2244 244.18 17.1534 244.18 18.2614C244.18 19.2102 243.922 20.0625 243.405 20.8182C242.893 21.5682 242.195 22.1591 241.308 22.5909C240.422 23.0227 239.413 23.2386 238.283 23.2386ZM253.871 4.72727L248.246 25.625H246.405L252.03 4.72727H253.871ZM262.085 9.90909V11.6136H255.028V9.90909H262.085ZM257.141 23V8.10227C257.141 7.35227 257.317 6.72727 257.67 6.22727C258.022 5.72727 258.479 5.35227 259.042 5.10227C259.604 4.85227 260.198 4.72727 260.823 4.72727C261.317 4.72727 261.721 4.76704 262.033 4.84659C262.346 4.92614 262.579 5 262.732 5.06818L262.153 6.80682C262.05 6.77273 261.908 6.73011 261.727 6.67898C261.55 6.62784 261.317 6.60227 261.028 6.60227C260.363 6.60227 259.883 6.76989 259.587 7.10511C259.298 7.44034 259.153 7.93182 259.153 8.57954V23H257.141ZM269.683 23.2727C268.501 23.2727 267.464 22.9915 266.572 22.429C265.685 21.8665 264.992 21.0795 264.492 20.0682C263.998 19.0568 263.751 17.875 263.751 16.5227C263.751 15.1591 263.998 13.9687 264.492 12.9517C264.992 11.9347 265.685 11.1449 266.572 10.5824C267.464 10.0199 268.501 9.73864 269.683 9.73864C270.864 9.73864 271.898 10.0199 272.785 10.5824C273.677 11.1449 274.37 11.9347 274.864 12.9517C275.364 13.9687 275.614 15.1591 275.614 16.5227C275.614 17.875 275.364 19.0568 274.864 20.0682C274.37 21.0795 273.677 21.8665 272.785 22.429C271.898 22.9915 270.864 23.2727 269.683 23.2727ZM269.683 21.4659C270.58 21.4659 271.319 21.2358 271.898 20.7756C272.478 20.3153 272.907 19.7102 273.185 18.9602C273.464 18.2102 273.603 17.3977 273.603 16.5227C273.603 15.6477 273.464 14.8324 273.185 14.0767C272.907 13.321 272.478 12.7102 271.898 12.2443C271.319 11.7784 270.58 11.5455 269.683 11.5455C268.785 11.5455 268.046 11.7784 267.467 12.2443C266.887 12.7102 266.458 13.321 266.18 14.0767C265.901 14.8324 265.762 15.6477 265.762 16.5227C265.762 17.3977 265.901 18.2102 266.18 18.9602C266.458 19.7102 266.887 20.3153 267.467 20.7756C268.046 21.2358 268.785 21.4659 269.683 21.4659ZM284.003 23.2727C282.821 23.2727 281.784 22.9915 280.892 22.429C280.006 21.8665 279.312 21.0795 278.812 20.0682C278.318 19.0568 278.071 17.875 278.071 16.5227C278.071 15.1591 278.318 13.9687 278.812 12.9517C279.312 11.9347 280.006 11.1449 280.892 10.5824C281.784 10.0199 282.821 9.73864 284.003 9.73864C285.185 9.73864 286.219 10.0199 287.105 10.5824C287.997 11.1449 288.69 11.9347 289.185 12.9517C289.685 13.9687 289.935 15.1591 289.935 16.5227C289.935 17.875 289.685 19.0568 289.185 20.0682C288.69 21.0795 287.997 21.8665 287.105 22.429C286.219 22.9915 285.185 23.2727 284.003 23.2727ZM284.003 21.4659C284.901 21.4659 285.639 21.2358 286.219 20.7756C286.798 20.3153 287.227 19.7102 287.506 18.9602C287.784 18.2102 287.923 17.3977 287.923 16.5227C287.923 15.6477 287.784 14.8324 287.506 14.0767C287.227 13.321 286.798 12.7102 286.219 12.2443C285.639 11.7784 284.901 11.5455 284.003 11.5455C283.105 11.5455 282.366 11.7784 281.787 12.2443C281.207 12.7102 280.778 13.321 280.5 14.0767C280.222 14.8324 280.082 15.6477 280.082 16.5227C280.082 17.3977 280.222 18.2102 280.5 18.9602C280.778 19.7102 281.207 20.3153 281.787 20.7756C282.366 21.2358 283.105 21.4659 284.003 21.4659Z" fill="currentColor"/>
<path d="M9.57031 60.5L7.47656 61.0703C7.15365 59.7161 6.41667 59.0391 5.26562 59.0391C4.56771 59.0391 4.03385 59.2031 3.66406 59.5312C3.35156 59.8125 3.19531 60.1875 3.19531 60.6562C3.19531 61.2396 3.375 61.6823 3.73438 61.9844C4.0625 62.2552 4.64323 62.5052 5.47656 62.7344L6.13281 62.9297C7.58594 63.3255 8.58073 63.8438 9.11719 64.4844C9.54948 65.0052 9.76562 65.7083 9.76562 66.5938C9.76562 67.7969 9.33854 68.724 8.48438 69.375C7.70312 69.974 6.63542 70.2734 5.28125 70.2734C3.97396 70.2734 2.91406 69.9714 2.10156 69.3672C1.36719 68.8203 0.864583 68.0495 0.59375 67.0547L2.65625 66.3984C2.82812 67.1641 3.16406 67.7422 3.66406 68.1328C4.09635 68.4714 4.61979 68.6406 5.23438 68.6406C6.81771 68.6406 7.60938 68.0495 7.60938 66.8672C7.60938 66.2734 7.4349 65.8307 7.08594 65.5391C6.7474 65.2526 6.11458 64.9792 5.1875 64.7188L4.54688 64.5312C3.16667 64.1198 2.21875 63.5964 1.70312 62.9609C1.27083 62.4297 1.05469 61.7083 1.05469 60.7969C1.05469 59.75 1.46094 58.9115 2.27344 58.2812C3.01823 57.6979 3.99479 57.4062 5.20312 57.4062C7.45833 57.4062 8.91406 58.4375 9.57031 60.5ZM18.8516 63.8594L16.8984 64.3047C16.7109 63.1172 16.1927 62.5234 15.3438 62.5234C14.0312 62.5234 13.375 63.5651 13.375 65.6484C13.375 67.7422 14.0312 68.7891 15.3438 68.7891C16.2708 68.7891 16.8307 68.1745 17.0234 66.9453L18.8984 67.4609C18.6693 68.4297 18.2083 69.1536 17.5156 69.6328C16.9167 70.0495 16.1771 70.2578 15.2969 70.2578C13.9635 70.2578 12.9427 69.7995 12.2344 68.8828C11.6198 68.0807 11.3125 67.013 11.3125 65.6797C11.3125 64.1536 11.7188 62.974 12.5312 62.1406C13.2344 61.4167 14.1562 61.0547 15.2969 61.0547C16.3073 61.0547 17.1276 61.3307 17.7578 61.8828C18.3047 62.362 18.6693 63.0208 18.8516 63.8594ZM22.6875 57.3906V62.7344C23.474 61.625 24.4141 61.0703 25.5078 61.0703C26.3047 61.0703 26.9323 61.3281 27.3906 61.8438C27.8073 62.3125 28.0156 62.9297 28.0156 63.6953V70.0312H25.9531V64.2734C25.9531 63.2891 25.5469 62.7969 24.7344 62.7969C24.3594 62.7969 23.974 62.9531 23.5781 63.2656C23.2396 63.5312 22.9427 63.8776 22.6875 64.3047V70.0312H20.6719V57.3906H22.6875ZM37.9375 66.0781H32C32.0104 66.9948 32.224 67.6979 32.6406 68.1875C33.0208 68.6302 33.5443 68.8516 34.2109 68.8516C35.1536 68.8516 35.7708 68.2943 36.0625 67.1797L37.8906 67.7109C37.3385 69.4089 36.1042 70.2578 34.1875 70.2578C32.7865 70.2578 31.7214 69.8047 30.9922 68.8984C30.3516 68.1068 30.0312 67.0391 30.0312 65.6953C30.0312 64.1745 30.4479 62.9922 31.2812 62.1484C31.9948 61.4193 32.9062 61.0547 34.0156 61.0547C35.2552 61.0547 36.2344 61.5052 36.9531 62.4062C37.6094 63.224 37.9375 64.3099 37.9375 65.6641V66.0781ZM35.9688 64.75C35.8698 63.2135 35.2292 62.4453 34.0469 62.4453C33.4062 62.4453 32.9089 62.6797 32.5547 63.1484C32.2526 63.5495 32.0781 64.0833 32.0312 64.75H35.9688ZM41.8906 61.25V62.7891C42.6406 61.6328 43.5625 61.0547 44.6562 61.0547C45.2656 61.0547 45.7682 61.2318 46.1641 61.5859C46.4922 61.888 46.7109 62.2839 46.8203 62.7734C47.5755 61.6276 48.5026 61.0547 49.6016 61.0547C50.3776 61.0547 50.9818 61.3151 51.4141 61.8359C51.8047 62.2995 52 62.9193 52 63.6953V70.0312H49.9844V64.2578C49.9844 63.2734 49.5781 62.7812 48.7656 62.7812C48.401 62.7812 48.0391 62.9375 47.6797 63.25C47.3724 63.5208 47.1224 63.862 46.9297 64.2734V70.0312H44.9453V64.2578C44.9453 63.2734 44.5833 62.7812 43.8594 62.7812C43.4896 62.7812 43.1198 62.9349 42.75 63.2422C42.4271 63.513 42.1615 63.8568 41.9531 64.2734V70.0312H39.9688V61.25H41.8906ZM61.9219 66.0781H55.9844C55.9948 66.9948 56.2083 67.6979 56.625 68.1875C57.0052 68.6302 57.5286 68.8516 58.1953 68.8516C59.138 68.8516 59.7552 68.2943 60.0469 67.1797L61.875 67.7109C61.3229 69.4089 60.0885 70.2578 58.1719 70.2578C56.7708 70.2578 55.7057 69.8047 54.9766 68.8984C54.3359 68.1068 54.0156 67.0391 54.0156 65.6953C54.0156 64.1745 54.4323 62.9922 55.2656 62.1484C55.9792 61.4193 56.8906 61.0547 58 61.0547C59.2396 61.0547 60.2188 61.5052 60.9375 62.4062C61.5938 63.224 61.9219 64.3099 61.9219 65.6641V66.0781ZM59.9531 64.75C59.8542 63.2135 59.2135 62.4453 58.0312 62.4453C57.3906 62.4453 56.8932 62.6797 56.5391 63.1484C56.237 63.5495 56.0625 64.0833 56.0156 64.75H59.9531Z" fill="#CE9569"/>
<path d="M104.938 57.6172V70.0312H102.797V64.4297H97.625V70.0312H95.4844V57.6172H97.625V62.6719H102.797V57.6172H104.938ZM111.188 61.0547C112.469 61.0547 113.471 61.5156 114.195 62.4375C114.836 63.2552 115.156 64.3203 115.156 65.6328C115.156 67.1484 114.745 68.3281 113.922 69.1719C113.214 69.8958 112.297 70.2578 111.172 70.2578C109.88 70.2578 108.875 69.7969 108.156 68.875C107.521 68.0625 107.203 66.9974 107.203 65.6797C107.203 64.1693 107.617 62.9896 108.445 62.1406C109.159 61.4167 110.073 61.0547 111.188 61.0547ZM111.188 62.5078C109.906 62.5078 109.266 63.5547 109.266 65.6484C109.266 67.7526 109.901 68.8047 111.172 68.8047C112.453 68.8047 113.094 67.7526 113.094 65.6484C113.094 63.5547 112.458 62.5078 111.188 62.5078ZM123.555 63.2969L121.648 63.8438C121.43 62.901 120.909 62.4297 120.086 62.4297C119.638 62.4297 119.286 62.5339 119.031 62.7422C118.818 62.9089 118.711 63.1198 118.711 63.375C118.711 63.7448 118.828 64.0208 119.062 64.2031C119.281 64.3698 119.685 64.5312 120.273 64.6875L121.008 64.8828C122.07 65.1641 122.802 65.526 123.203 65.9688C123.557 66.3594 123.734 66.888 123.734 67.5547C123.734 68.4297 123.398 69.1068 122.727 69.5859C122.107 70.0339 121.258 70.2578 120.18 70.2578C118.268 70.2578 117.047 69.526 116.516 68.0625L118.391 67.4062C118.672 68.3906 119.284 68.8828 120.227 68.8828C121.294 68.8828 121.828 68.5052 121.828 67.75C121.828 67.375 121.703 67.1016 121.453 66.9297C121.24 66.7891 120.799 66.6224 120.133 66.4297L119.398 66.2266C118.383 65.9557 117.688 65.6016 117.312 65.1641C116.984 64.7786 116.82 64.2422 116.82 63.5547C116.82 62.7682 117.141 62.1458 117.781 61.6875C118.37 61.2656 119.148 61.0547 120.117 61.0547C121.904 61.0547 123.049 61.8021 123.555 63.2969ZM128.148 58.3828V61.25H130.117V62.7188H128.148V67.5391C128.148 68.3828 128.51 68.8047 129.234 68.8047C129.625 68.8047 129.966 68.7708 130.258 68.7031L130.18 70.1406C129.737 70.2083 129.214 70.2422 128.609 70.2422C127.719 70.2422 127.078 70.0286 126.688 69.6016C126.339 69.2214 126.164 68.6562 126.164 67.9062V62.7188H124.852V61.25H126.164V58.8359L128.148 58.3828ZM133.781 61.25V62.7891C134.167 62.2161 134.625 61.776 135.156 61.4688C135.641 61.1927 136.143 61.0547 136.664 61.0547C137.461 61.0547 138.089 61.3151 138.547 61.8359C138.964 62.3047 139.172 62.9245 139.172 63.6953V70.0312H137.109V64.2578C137.109 63.2734 136.703 62.7812 135.891 62.7812C135.516 62.7812 135.13 62.9323 134.734 63.2344C134.396 63.5 134.099 63.8464 133.844 64.2734V70.0312H131.828V61.25H133.781ZM141.461 63.4609C141.914 61.8464 143.125 61.0391 145.094 61.0391C147.365 61.0391 148.5 62.0104 148.5 63.9531V67.4375C148.5 68.2865 148.547 69.151 148.641 70.0312H146.789C146.732 69.7031 146.682 69.3203 146.641 68.8828C146.01 69.7891 145.089 70.2422 143.875 70.2422C143.005 70.2422 142.323 69.9766 141.828 69.4453C141.391 68.9766 141.172 68.3724 141.172 67.6328C141.172 66.0703 142.128 65.1042 144.039 64.7344C144.747 64.599 145.583 64.5156 146.547 64.4844V63.9844C146.547 63.401 146.409 62.987 146.133 62.7422C145.893 62.5339 145.523 62.4297 145.023 62.4297C144.565 62.4297 144.185 62.5781 143.883 62.875C143.607 63.1458 143.427 63.5104 143.344 63.9688L141.461 63.4609ZM146.547 65.7266C145.875 65.7422 145.203 65.8281 144.531 65.9844C143.573 66.2135 143.094 66.7109 143.094 67.4766C143.094 68.362 143.562 68.8047 144.5 68.8047C145.354 68.8047 146.036 68.3229 146.547 67.3594V65.7266ZM152.953 61.25V62.7891C153.703 61.6328 154.625 61.0547 155.719 61.0547C156.328 61.0547 156.831 61.2318 157.227 61.5859C157.555 61.888 157.773 62.2839 157.883 62.7734C158.638 61.6276 159.565 61.0547 160.664 61.0547C161.44 61.0547 162.044 61.3151 162.477 61.8359C162.867 62.2995 163.062 62.9193 163.062 63.6953V70.0312H161.047V64.2578C161.047 63.2734 160.641 62.7812 159.828 62.7812C159.464 62.7812 159.102 62.9375 158.742 63.25C158.435 63.5208 158.185 63.862 157.992 64.2734V70.0312H156.008V64.2578C156.008 63.2734 155.646 62.7812 154.922 62.7812C154.552 62.7812 154.182 62.9349 153.812 63.2422C153.49 63.513 153.224 63.8568 153.016 64.2734V70.0312H151.031V61.25H152.953ZM172.984 66.0781H167.047C167.057 66.9948 167.271 67.6979 167.688 68.1875C168.068 68.6302 168.591 68.8516 169.258 68.8516C170.201 68.8516 170.818 68.2943 171.109 67.1797L172.938 67.7109C172.385 69.4089 171.151 70.2578 169.234 70.2578C167.833 70.2578 166.768 69.8047 166.039 68.8984C165.398 68.1068 165.078 67.0391 165.078 65.6953C165.078 64.1745 165.495 62.9922 166.328 62.1484C167.042 61.4193 167.953 61.0547 169.062 61.0547C170.302 61.0547 171.281 61.5052 172 62.4062C172.656 63.224 172.984 64.3099 172.984 65.6641V66.0781ZM171.016 64.75C170.917 63.2135 170.276 62.4453 169.094 62.4453C168.453 62.4453 167.956 62.6797 167.602 63.1484C167.299 63.5495 167.125 64.0833 167.078 64.75H171.016Z" fill="#CEC169"/>
<path d="M203.484 57.6172H207.867C210.82 57.6172 212.297 58.8021 212.297 61.1719C212.297 62.4062 211.857 63.3411 210.977 63.9766C210.19 64.5391 209.109 64.8203 207.734 64.8203H205.641V70.0312H203.484V57.6172ZM205.641 59.2344V63.2031H207.672C209.302 63.2031 210.117 62.5312 210.117 61.1875C210.117 59.8854 209.328 59.2344 207.75 59.2344H205.641ZM217.516 61.0547C218.797 61.0547 219.799 61.5156 220.523 62.4375C221.164 63.2552 221.484 64.3203 221.484 65.6328C221.484 67.1484 221.073 68.3281 220.25 69.1719C219.542 69.8958 218.625 70.2578 217.5 70.2578C216.208 70.2578 215.203 69.7969 214.484 68.875C213.849 68.0625 213.531 66.9974 213.531 65.6797C213.531 64.1693 213.945 62.9896 214.773 62.1406C215.487 61.4167 216.401 61.0547 217.516 61.0547ZM217.516 62.5078C216.234 62.5078 215.594 63.5547 215.594 65.6484C215.594 67.7526 216.229 68.8047 217.5 68.8047C218.781 68.8047 219.422 67.7526 219.422 65.6484C219.422 63.5547 218.786 62.5078 217.516 62.5078ZM228.156 61.0547L228.023 62.9453C226.904 62.9453 226.073 63.6875 225.531 65.1719V70.0312H223.547V61.25H225.438V63.4062C226.005 61.8385 226.911 61.0547 228.156 61.0547ZM232.227 58.3828V61.25H234.195V62.7188H232.227V67.5391C232.227 68.3828 232.589 68.8047 233.312 68.8047C233.703 68.8047 234.044 68.7708 234.336 68.7031L234.258 70.1406C233.815 70.2083 233.292 70.2422 232.688 70.2422C231.797 70.2422 231.156 70.0286 230.766 69.6016C230.417 69.2214 230.242 68.6562 230.242 67.9062V62.7188H228.93V61.25H230.242V58.8359L232.227 58.3828Z" fill="#69CEA8"/>
<path d="M154.938 78.6172V91.0312H152.797V85.4297H147.625V91.0312H145.484V78.6172H147.625V83.6719H152.797V78.6172H154.938ZM161.188 82.0547C162.469 82.0547 163.471 82.5156 164.195 83.4375C164.836 84.2552 165.156 85.3203 165.156 86.6328C165.156 88.1484 164.745 89.3281 163.922 90.1719C163.214 90.8958 162.297 91.2578 161.172 91.2578C159.88 91.2578 158.875 90.7969 158.156 89.875C157.521 89.0625 157.203 87.9974 157.203 86.6797C157.203 85.1693 157.617 83.9896 158.445 83.1406C159.159 82.4167 160.073 82.0547 161.188 82.0547ZM161.188 83.5078C159.906 83.5078 159.266 84.5547 159.266 86.6484C159.266 88.7526 159.901 89.8047 161.172 89.8047C162.453 89.8047 163.094 88.7526 163.094 86.6484C163.094 84.5547 162.458 83.5078 161.188 83.5078ZM173.555 84.2969L171.648 84.8438C171.43 83.901 170.909 83.4297 170.086 83.4297C169.638 83.4297 169.286 83.5339 169.031 83.7422C168.818 83.9089 168.711 84.1198 168.711 84.375C168.711 84.7448 168.828 85.0208 169.062 85.2031C169.281 85.3698 169.685 85.5312 170.273 85.6875L171.008 85.8828C172.07 86.1641 172.802 86.526 173.203 86.9688C173.557 87.3594 173.734 87.888 173.734 88.5547C173.734 89.4297 173.398 90.1068 172.727 90.5859C172.107 91.0339 171.258 91.2578 170.18 91.2578C168.268 91.2578 167.047 90.526 166.516 89.0625L168.391 88.4062C168.672 89.3906 169.284 89.8828 170.227 89.8828C171.294 89.8828 171.828 89.5052 171.828 88.75C171.828 88.375 171.703 88.1016 171.453 87.9297C171.24 87.7891 170.799 87.6224 170.133 87.4297L169.398 87.2266C168.383 86.9557 167.688 86.6016 167.312 86.1641C166.984 85.7786 166.82 85.2422 166.82 84.5547C166.82 83.7682 167.141 83.1458 167.781 82.6875C168.37 82.2656 169.148 82.0547 170.117 82.0547C171.904 82.0547 173.049 82.8021 173.555 84.2969ZM178.148 79.3828V82.25H180.117V83.7188H178.148V88.5391C178.148 89.3828 178.51 89.8047 179.234 89.8047C179.625 89.8047 179.966 89.7708 180.258 89.7031L180.18 91.1406C179.737 91.2083 179.214 91.2422 178.609 91.2422C177.719 91.2422 177.078 91.0286 176.688 90.6016C176.339 90.2214 176.164 89.6562 176.164 88.9062V83.7188H174.852V82.25H176.164V79.8359L178.148 79.3828Z" fill="#008FC0"/>
<path d="M104.125 103.406C105.859 103.406 107.203 104.036 108.156 105.297C109.01 106.427 109.438 107.935 109.438 109.82C109.438 111.982 108.883 113.641 107.773 114.797C106.836 115.781 105.615 116.273 104.109 116.273C102.375 116.273 101.031 115.641 100.078 114.375C99.224 113.245 98.7969 111.74 98.7969 109.859C98.7969 107.698 99.3542 106.036 100.469 104.875C101.406 103.896 102.625 103.406 104.125 103.406ZM104.125 105.07C103.12 105.07 102.352 105.521 101.82 106.422C101.331 107.25 101.086 108.391 101.086 109.844C101.086 111.495 101.401 112.737 102.031 113.57C102.557 114.263 103.255 114.609 104.125 114.609C105.125 114.609 105.891 114.156 106.422 113.25C106.906 112.422 107.148 111.286 107.148 109.844C107.148 108.182 106.836 106.938 106.211 106.109C105.69 105.417 104.995 105.07 104.125 105.07ZM116.156 107.055L116.023 108.945C114.904 108.945 114.073 109.688 113.531 111.172V116.031H111.547V107.25H113.438V109.406C114.005 107.839 114.911 107.055 116.156 107.055ZM119.828 107.25V116.031H117.812V107.25H119.828ZM119.914 103.617V105.68H117.734V103.617H119.914ZM129.977 106.031L129.852 107.648C129.404 107.648 129.062 107.688 128.828 107.766C128.646 107.828 128.464 107.94 128.281 108.102C128.76 108.596 129 109.182 129 109.859C129 110.818 128.635 111.56 127.906 112.086C127.292 112.534 126.505 112.758 125.547 112.758C125.141 112.758 124.76 112.708 124.406 112.609C123.979 112.823 123.766 113.078 123.766 113.375C123.766 113.583 123.854 113.732 124.031 113.82C124.208 113.909 124.526 113.974 124.984 114.016L126.969 114.18C128.146 114.294 128.971 114.565 129.445 114.992C129.82 115.341 130.008 115.828 130.008 116.453C130.008 117.302 129.578 117.971 128.719 118.461C127.932 118.904 126.891 119.125 125.594 119.125C124.26 119.125 123.24 118.904 122.531 118.461C121.938 118.086 121.641 117.596 121.641 116.992C121.641 116.242 122.18 115.672 123.258 115.281C122.435 115.099 122.023 114.677 122.023 114.016C122.023 113.365 122.471 112.758 123.367 112.195C122.534 111.664 122.117 110.891 122.117 109.875C122.117 108.969 122.482 108.255 123.211 107.734C123.831 107.281 124.615 107.055 125.562 107.055C126.286 107.055 126.909 107.195 127.43 107.477C127.737 106.919 128.102 106.534 128.523 106.32C128.893 106.128 129.378 106.031 129.977 106.031ZM125.555 108.242C125.06 108.242 124.661 108.404 124.359 108.727C124.094 109.018 123.961 109.391 123.961 109.844C123.961 110.432 124.13 110.88 124.469 111.188C124.75 111.443 125.112 111.57 125.555 111.57C126.065 111.57 126.466 111.406 126.758 111.078C127.023 110.771 127.156 110.365 127.156 109.859C127.156 109.328 126.982 108.911 126.633 108.609C126.346 108.365 125.987 108.242 125.555 108.242ZM124.469 115.523C123.682 115.773 123.289 116.172 123.289 116.719C123.289 117.125 123.539 117.438 124.039 117.656C124.466 117.844 125.021 117.938 125.703 117.938C126.578 117.938 127.247 117.807 127.711 117.547C128.081 117.339 128.266 117.081 128.266 116.773C128.266 116.44 128.146 116.201 127.906 116.055C127.667 115.914 127.247 115.812 126.648 115.75L124.469 115.523ZM133.703 107.25V116.031H131.688V107.25H133.703ZM133.789 103.617V105.68H131.609V103.617H133.789ZM138.234 107.25V108.789C138.62 108.216 139.078 107.776 139.609 107.469C140.094 107.193 140.596 107.055 141.117 107.055C141.914 107.055 142.542 107.315 143 107.836C143.417 108.305 143.625 108.924 143.625 109.695V116.031H141.562V110.258C141.562 109.273 141.156 108.781 140.344 108.781C139.969 108.781 139.583 108.932 139.188 109.234C138.849 109.5 138.552 109.846 138.297 110.273V116.031H136.281V107.25H138.234Z" fill="#BD69CE"/>
<line y1="31.5" x2="64" y2="31.5" stroke="#CE9569" stroke-width="3"/>
<line x1="82" y1="31.5" x2="185" y2="31.5" stroke="#CEC169" stroke-width="3"/>
<line x1="193" y1="31.5" x2="244" y2="31.5" stroke="#69CEA8" stroke-width="3"/>
<line x1="82" y1="40.5" x2="244.003" y2="40.5" stroke="#008FC0" stroke-width="3"/>
<line y1="49.5" x2="244.002" y2="49.5" stroke="#BD69CE" stroke-width="3"/>
</svg>
