<svg width="854" height="480" fill="none" xmlns="http://www.w3.org/2000/svg">
<path d="M0 0h854v480H0V0Z" fill="#F2F2F2"/>
<path fill-rule="evenodd" clip-rule="evenodd" d="M392 124c0 11.046 8 20 25 20 13.518 0 17 7.611 17 17 0 7.639-5.039 14.102-11.974 16.245C416 179.107 410 181.5 410 190c0 6.5 7.596 11.5 14.5 11.5 2.182 0 7.574-1.364 9.5-2.5 19.5-11.5 28-22.5 28-45 0-27.354-14-50-48-50-11.046 0-22 8.955-22 20Zm28 5c2.761 0 5-2.239 5-5s-2.239-5-5-5-5 2.239-5 5 2.239 5 5 5Z" fill="#939393"/>
<path fill-rule="evenodd" clip-rule="evenodd" d="M392 202c31.271-38.174 46.52-59.644 70-98 0 0 1.5 0 2.5 1s1.569 1.906 1.569 1.906c-21.356 34.399-39.207 57.491-70 98-1.862-.381-2.823-.825-4.069-2.906Z" fill="#929292"/>
<path d="M310.148 295.168c.048 3.264.168 6.936.36 11.016.24 4.032.576 9.072 1.008 15.12-.624.144-1.344.264-2.16.36-.816.096-1.656.168-2.52.216-1.008-11.424-1.704-20.976-2.088-28.656-.384-7.68-.576-15.336-.576-22.968h.144l.072-.072c1.2-.576 2.232-.984 3.096-1.224.912-.288 1.944-.528 3.096-.72 4.944 6.384 9.24 12.768 12.888 19.152 3.696 6.336 7.128 13.296 10.296 20.88.096-1.584.144-3.36.144-5.328.048-2.016.072-5.112.072-9.288 0-6.432-.12-12-.36-16.704-.192-4.752-.504-8.544-.936-11.376 1.2-.384 2.256-.648 3.168-.792.96-.144 1.944-.24 2.952-.288.192 4.08.312 7.152.36 9.216.048 2.016.072 3.936.072 5.76 0 7.536-.12 14.136-.36 19.8-.24 5.664-.624 11.664-1.152 18-.72.144-1.464.264-2.232.36-.72.048-1.536.096-2.448.144-3.504-8.256-7.176-15.744-11.016-22.464-3.84-6.768-7.848-12.84-12.024-18.216-.048 2.544-.048 5.952 0 10.224.096 4.272.144 6.888.144 7.848Zm36.711 6.408c0-6.24 1.416-11.328 4.248-15.264 2.88-3.936 6.576-5.904 11.088-5.904 3.696 0 6.624 1.416 8.784 4.248 2.16 2.784 3.24 6.552 3.24 11.304 0 6.96-1.368 12.672-4.104 17.136-2.688 4.416-6.264 6.624-10.728 6.624-3.84 0-6.888-1.656-9.144-4.968-2.256-3.36-3.384-7.752-3.384-13.176Zm21.6-2.592c0-4.896-.624-8.544-1.872-10.944-1.248-2.4-3.144-3.6-5.688-3.6-2.304 0-4.32 1.584-6.048 4.752-1.68 3.168-2.52 7.056-2.52 11.664 0 4.224.72 7.776 2.16 10.656 1.44 2.832 3.384 4.248 5.832 4.248 2.16 0 4.056-1.632 5.688-4.896 1.632-3.312 2.448-7.272 2.448-11.88Zm33.175-15.048c0 10.752-.048 18.36-.144 22.824-.048 4.416-.168 8.976-.36 13.68-.48.144-1.152.264-2.016.36-.864.096-1.776.168-2.736.216.096-9.552.048-18.504-.144-26.856s-.552-16.08-1.08-23.184c.576-.336 1.176-.576 1.8-.72.672-.144 1.344-.216 2.016-.216.384 0 .744.024 1.08.072.384 0 .792.048 1.224.144.144 2.016.24 4.08.288 6.192.048 2.112.072 4.608.072 7.488Zm14.786 23.04c0 2.784.048 5.448.144 7.992.096 2.496.216 4.296.36 5.4-.624.192-1.368.36-2.232.504-.864.144-1.704.216-2.52.216-.336-5.664-.648-12.408-.936-20.232-.288-7.824-.432-14.304-.432-19.44.48-.24 1.056-.432 1.728-.576.672-.144 1.368-.216 2.088-.216s1.272.024 1.656.072c.432.048.84.12 1.224.216l-.288 2.88c-.096 1.392-.216 3.264-.36 5.616 1.488-2.304 3.096-4.032 4.824-5.184 1.776-1.152 3.672-1.728 5.688-1.728 1.728 0 3.144.408 4.248 1.224 1.152.816 2.04 2.064 2.664 3.744 1.68-2.976 3.456-5.208 5.328-6.696 1.92-1.488 3.984-2.232 6.192-2.232 2.832 0 4.896 1.08 6.192 3.24 1.296 2.16 1.944 5.568 1.944 10.224 0 4.224-.408 9-1.224 14.328-.768 5.328-1.728 10.08-2.88 14.256-.864-.048-1.8-.168-2.808-.36-.96-.144-1.776-.336-2.448-.576 1.296-5.184 2.256-10.056 2.88-14.616.672-4.608 1.008-9.024 1.008-13.248 0-3.024-.36-5.184-1.08-6.48-.672-1.344-1.8-2.016-3.384-2.016-1.584 0-3.144.792-4.68 2.376-1.536 1.584-2.88 3.792-4.032 6.624.048.816.072 1.512.072 2.088.048.528.072 1.032.072 1.512 0 3.408-.288 7.272-.864 11.592-.576 4.32-1.224 7.896-1.944 10.728-.72-.048-1.56-.144-2.52-.288-.912-.192-1.752-.408-2.52-.648.912-4.848 1.536-8.928 1.872-12.24.384-3.312.576-6.384.576-9.216 0-3.072-.36-5.256-1.08-6.552-.672-1.344-1.8-2.016-3.384-2.016-1.68 0-3.336.744-4.968 2.232-1.584 1.488-2.904 3.528-3.96 6.12-.048 1.92-.096 3.888-.144 5.904-.048 1.968-.072 3.792-.072 5.472Zm70.274-12.528c0 3.168-.432 7.368-1.296 12.6-.864 5.232-1.896 10.032-3.096 14.4-.72 0-1.488-.072-2.304-.216-.816-.144-1.608-.336-2.376-.576.048-.192.096-.432.144-.72.048-.24.144-.576.288-1.008.144-.768.264-1.32.36-1.656.096-.384.168-.72.216-1.008-1.008.72-2.16 1.272-3.456 1.656-1.248.384-2.592.576-4.032.576-3.264 0-5.904-.864-7.92-2.592-2.016-1.776-3.024-4.104-3.024-6.984 0-3.12 1.32-5.496 3.96-7.128 2.64-1.632 6.528-2.448 11.664-2.448.768 0 1.512.024 2.232.072.72 0 1.68.024 2.88.072.048-.48.072-1.008.072-1.584v-2.736c0-3.84-.48-6.624-1.44-8.352-.912-1.728-2.448-2.592-4.608-2.592-2.208 0-4.056.984-5.544 2.952-1.488 1.92-2.28 4.368-2.376 7.344-1.344-.192-2.424-.504-3.24-.936-.816-.48-1.44-1.104-1.872-1.872.576-3.168 2.16-5.856 4.752-8.064 2.64-2.208 5.64-3.312 9-3.312 3.648 0 6.384 1.2 8.208 3.6 1.872 2.352 2.808 5.856 2.808 10.512Zm-20.808 14.616c0 1.776.576 3.192 1.728 4.248 1.152 1.008 2.664 1.512 4.536 1.512 1.344 0 2.616-.192 3.816-.576 1.248-.432 2.4-1.056 3.456-1.872.384-1.968.672-3.72.864-5.256.24-1.536.408-3.072.504-4.608-4.944-.288-8.664.12-11.16 1.224-2.496 1.056-3.744 2.832-3.744 5.328Zm33.779-8.568c0 4.368.624 7.8 1.872 10.296 1.248 2.496 2.904 3.744 4.968 3.744 1.584 0 2.928-.792 4.032-2.376 1.152-1.632 2.136-4.152 2.952-7.56-.096-3.6-.36-6.888-.792-9.864-.384-3.024-.96-5.832-1.728-8.424-.432-.144-.912-.24-1.44-.288-.48-.096-.984-.144-1.512-.144-2.784 0-4.872 1.224-6.264 3.672-1.392 2.4-2.088 6.048-2.088 10.944Zm19.44 6.336c0 9.696-1.272 17.112-3.816 22.248-2.544 5.136-6.048 7.704-10.512 7.704-3.072 0-5.616-1.032-7.632-3.096s-3.288-4.872-3.816-8.424c.72-.528 1.512-.984 2.376-1.368.912-.384 1.824-.672 2.736-.864.48 3.408 1.248 5.88 2.304 7.416 1.056 1.536 2.52 2.304 4.392 2.304 2.4 0 4.32-1.704 5.76-5.112 1.44-3.36 2.304-8.28 2.592-14.76-.96 1.968-2.088 3.432-3.384 4.392-1.248.96-2.712 1.44-4.392 1.44-3.648 0-6.552-1.608-8.712-4.824-2.112-3.264-3.168-7.656-3.168-13.176 0-5.856 1.296-10.464 3.888-13.824 2.64-3.408 6.168-5.112 10.584-5.112 1.392 0 2.808.168 4.248.504 1.488.336 2.856.816 4.104 1.44.72 3.12 1.296 6.84 1.728 11.16.48 4.272.72 8.256.72 11.952Zm12.826-10.368c1.392.48 2.88.864 4.464 1.152 1.632.24 3.336.36 5.112.36.48 0 1.032-.024 1.656-.072.672-.048 1.152-.12 1.44-.216.384-1.392.648-2.664.792-3.816.192-1.2.288-2.28.288-3.24 0-2.112-.36-3.624-1.08-4.536-.672-.912-1.776-1.368-3.312-1.368-2.016 0-3.864 1.08-5.544 3.24-1.68 2.16-2.952 4.992-3.816 8.496Zm16.056 10.296c.768.144 1.536.432 2.304.864.816.432 1.512.936 2.088 1.512-.912 2.736-2.784 5.208-5.616 7.416-2.784 2.16-5.688 3.24-8.712 3.24-3.888 0-6.96-1.512-9.216-4.536-2.208-3.024-3.312-7.08-3.312-12.168 0-5.712 1.584-10.848 4.752-15.408 3.216-4.56 7.032-6.84 11.448-6.84 2.832 0 5.064.912 6.696 2.736 1.68 1.776 2.52 4.2 2.52 7.272 0 1.632-.168 3.288-.504 4.968-.288 1.632-.696 3.192-1.224 4.68-.96.336-2.136.6-3.528.792-1.344.144-3.024.216-5.04.216-1.536 0-3.12-.12-4.752-.36-1.584-.288-3.12-.696-4.608-1.224-.096.576-.168 1.152-.216 1.728v1.584c0 3.792.648 6.864 1.944 9.216 1.344 2.304 3.12 3.456 5.328 3.456 1.92 0 3.84-.888 5.76-2.664 1.92-1.824 3.216-3.984 3.888-6.48Z" fill="#929292"/>
</svg>
